<svg width="412" height="611" viewBox="0 0 412 611" fill="none" xmlns="http://www.w3.org/2000/svg">
<g filter="url(#filter0_f_19_305)">
<ellipse cx="179.13" cy="488.8" rx="99.7342" ry="40.0493" transform="rotate(7.54594 179.13 488.8)" fill="#002635"/>
</g>
<path d="M290.786 443.489C290.72 443.489 290.654 443.485 290.588 443.476C290.331 443.441 290.088 443.337 289.884 443.176C289.68 443.014 289.524 442.801 289.431 442.559L288.174 439.263C288.088 439.036 288.06 438.791 288.093 438.55C288.126 438.309 288.22 438.08 288.364 437.885L303.591 417.471C318.305 397.749 335.25 379.788 354.091 363.945C354.374 363.707 354.738 363.586 355.107 363.608C355.477 363.629 355.824 363.791 356.077 364.06L356.909 364.939C357.04 365.078 357.142 365.242 357.21 365.421C357.277 365.6 357.308 365.79 357.301 365.981C357.295 366.172 357.25 366.36 357.17 366.534C357.089 366.707 356.976 366.863 356.835 366.992L351.989 371.445C337.214 385.025 323.764 399.974 311.818 416.09L291.948 442.907C291.813 443.088 291.638 443.234 291.436 443.335C291.234 443.436 291.011 443.489 290.786 443.489Z" fill="#055256"/>
<path d="M355.023 365.05L355.856 365.929L351.01 370.381C336.165 384.019 322.653 399.034 310.655 415.225L290.786 442.042L289.527 438.746L304.751 418.329C319.396 398.694 336.265 380.814 355.023 365.045M355.023 362.155C354.34 362.155 353.68 362.396 353.158 362.835C334.232 378.75 317.211 396.792 302.43 416.603L287.204 437.019C286.913 437.408 286.726 437.865 286.659 438.347C286.592 438.828 286.648 439.319 286.822 439.773L288.081 443.068C288.266 443.553 288.578 443.979 288.984 444.301C289.391 444.624 289.877 444.831 290.391 444.902C290.522 444.919 290.654 444.928 290.786 444.928C291.238 444.928 291.684 444.822 292.088 444.619C292.492 444.415 292.843 444.12 293.112 443.757L312.982 416.94C324.873 400.9 338.263 386.021 352.97 372.504L357.815 368.052C358.097 367.793 358.324 367.481 358.484 367.134C358.644 366.786 358.734 366.411 358.747 366.029C358.761 365.647 358.698 365.266 358.563 364.908C358.429 364.55 358.224 364.223 357.962 363.945L357.13 363.066C356.859 362.778 356.532 362.549 356.168 362.393C355.805 362.236 355.413 362.156 355.017 362.157L355.023 362.155Z" fill="black"/>
<path d="M148.087 410.903C136.983 392.691 104.835 387.462 101.11 416.413C97.881 441.518 128.089 453.149 149.711 446.354C157.529 443.9 161.768 433.338 148.087 410.903Z" fill="#0C5166"/>
<path d="M149.713 446.35C128.092 453.136 97.8845 441.52 101.112 416.417C102.473 405.857 107.606 399.843 114.132 397.356C114.019 397.945 114.25 398.689 113.845 399.169C94.5194 422.134 119.793 447.132 136.561 417.424C144.627 421.598 147.247 431.934 156.536 430.475C158.307 439.82 154.747 444.775 149.713 446.35Z" fill="#042121"/>
<path d="M136.853 451.143C126.287 451.143 115.68 447.774 108.311 441.617C100.531 435.113 96.9546 426.035 98.2401 416.044C99.7967 403.941 106.47 395.773 116.553 393.632C128.865 391.022 143.495 397.798 150.563 409.4C158.77 422.859 161.63 433.893 158.839 441.313C158.162 443.161 157.065 444.828 155.632 446.181C154.2 447.534 152.473 448.537 150.586 449.11C146.138 450.478 141.507 451.164 136.853 451.143ZM121.959 398.856C120.547 398.851 119.138 398.995 117.756 399.285C110.008 400.93 105.254 406.98 103.984 416.781C102.67 426.993 107.633 433.514 112.028 437.186C121.232 444.875 136.372 447.512 148.844 443.596C151.06 442.902 152.597 441.448 153.423 439.277C154.655 436.027 155.263 428.213 145.624 412.404C140.649 404.268 130.876 398.856 121.959 398.856Z" fill="black"/>
<path d="M133.912 408.249C132.699 405.136 122.933 400.619 115.613 405.097C107.64 409.978 116.074 410.103 121.776 410.597C127.608 411.103 135.125 411.363 133.912 408.249Z" fill="white"/>
<path d="M215.393 449.326C207.086 468.539 209.445 497.244 206.015 518.403C203.416 534.398 197.519 546.083 181.215 546.083C173.523 546.083 145.117 547.802 139.621 539.012C137.783 536.078 136.87 532.243 138.202 528.582C139.491 525.028 142.905 521.632 149.647 519.385C148.027 509.078 147.108 498.597 146.654 488.492C146.263 479.88 146.205 471.531 146.335 463.795C146.61 447.123 147.769 433.262 148.318 425.562L215.393 449.326Z" fill="white"/>
<path d="M215.393 449.326C207.086 468.539 209.445 497.244 206.015 518.403C203.416 534.398 197.519 546.083 181.215 546.083C173.523 546.083 145.117 547.802 139.621 539.012C137.783 536.078 136.87 532.243 138.202 528.582C140.554 530.942 146.082 534.03 159.079 535.075C185.636 537.198 195.11 531.89 196.188 506.138C197.186 482.2 164.571 488.346 146.328 463.795C146.603 447.123 147.761 433.262 148.311 425.562L215.393 449.326Z" fill="black"/>
<path d="M171.401 549.087C155.696 549.087 141.598 547.637 137.166 540.541C134.606 536.442 133.988 531.733 135.472 527.622C136.585 524.535 139.403 520.415 146.439 517.498C141.225 481.992 144.011 444.45 145.215 428.221L145.427 425.353C145.447 424.969 145.544 424.594 145.712 424.249C145.88 423.904 146.115 423.595 146.403 423.341C146.692 423.087 147.028 422.894 147.392 422.771C147.756 422.648 148.142 422.599 148.525 422.627C148.908 422.654 149.283 422.758 149.626 422.931C149.969 423.105 150.274 423.345 150.523 423.637C150.772 423.929 150.96 424.268 151.076 424.634C151.193 425 151.235 425.385 151.2 425.768L150.989 428.648C149.772 445.034 146.925 483.406 152.514 518.937L152.893 521.354L150.568 522.126C145.393 523.848 142.056 526.425 140.919 529.58C139.67 533.039 141.313 536.259 142.077 537.49C146.064 543.872 169.899 543.402 177.73 543.248C179.126 543.22 180.31 543.197 181.213 543.197C201.053 543.197 203.559 524.419 205.337 493.495C206.251 477.526 207.195 461.014 212.745 448.185C213.065 447.507 213.637 446.981 214.339 446.715C215.041 446.45 215.819 446.468 216.508 446.764C217.198 447.061 217.745 447.613 218.034 448.304C218.324 448.996 218.333 449.772 218.059 450.47C212.916 462.361 212.002 478.352 211.116 493.82C209.565 520.932 207.959 548.969 181.22 548.969C180.34 548.969 179.202 548.992 177.851 549.02C175.68 549.06 173.525 549.087 171.401 549.087Z" fill="black"/>
<path d="M171.576 531.29C169.299 534.589 169.035 539.666 171.68 542.778C172.523 543.742 173.453 544.232 174.606 544.297C177.14 544.548 177.142 548.208 174.627 548.477C167.309 549.013 163.71 539.787 166.175 533.899C167.001 531.912 168.447 530.162 170.565 529.448C170.818 529.361 171.096 529.378 171.336 529.496C171.577 529.613 171.761 529.821 171.849 530.074C172.025 530.503 171.764 530.93 171.57 531.29H171.576Z" fill="black"/>
<path d="M152.894 528.582C150.824 530.803 150.146 533.716 150.639 536.771C151.019 539.367 152.32 542.497 154.775 543.38C157.318 544.134 156.49 547.863 153.88 547.479C146.858 545.997 144.624 536.853 147.071 530.926C147.775 529.378 148.959 528.097 150.449 527.272C151.246 526.842 152.923 526.066 153.305 527.429C153.43 527.884 153.188 528.274 152.894 528.582Z" fill="black"/>
<path d="M308.224 540.987C302.811 549.821 272.302 548.565 264.617 548.051C252.597 547.257 244.682 535.721 239.479 522.106C237.841 517.767 236.447 513.339 235.304 508.845C231.164 492.823 229.26 474.056 228.942 472.649L291.101 435.155C290.761 437.265 293.637 473.297 293.855 477.452C294.043 481.244 294.425 485.694 294.911 490.459C295.635 497.616 296.597 505.461 297.502 512.794C297.842 515.496 298.167 518.139 298.479 520.646C305.744 522.985 309.268 527.139 310.129 531.552C310.758 534.762 309.99 538.098 308.224 540.987Z" fill="white"/>
<path d="M308.222 540.989C302.809 549.823 272.3 548.567 264.615 548.053C252.596 547.259 244.679 535.723 239.475 522.106C237.837 517.767 236.443 513.339 235.3 508.845C231.16 492.823 229.257 474.058 228.94 472.649L229.894 472.072C230.879 479.279 232.615 490.816 235.3 501.195C236.443 505.69 237.837 510.117 239.475 514.457C244.679 528.074 252.596 539.609 264.615 540.404C272.293 540.917 302.809 542.174 308.222 533.34C308.853 532.313 309.357 531.214 309.726 530.067C309.891 530.551 310.022 531.046 310.117 531.549C310.754 534.762 309.986 538.1 308.222 540.989Z" fill="black"/>
<path d="M293.961 435.619C293.522 442.459 294.339 449.493 294.756 456.36C296.296 476.913 298.998 499.685 301.249 520.296L299.331 517.976C306.857 520.176 313.982 526.421 313.128 535.092C312.723 539.219 310.886 543.513 307.357 545.802C304.082 547.958 300.576 548.869 296.922 549.649C289.999 550.992 283.159 551.289 276.343 551.345C269.266 551.127 261.647 551.961 255.196 548.275C235.133 537.149 227.454 494.279 227.528 472.958C227.323 471.147 229.817 470.562 230.357 472.341C230.745 473.724 231.204 475.964 231.518 477.387C235.709 496.261 240.674 532.366 258.132 543.035C260.821 544.54 263.238 545.092 266.452 545.204C269.74 545.39 273.045 545.489 276.339 545.499C282.915 545.499 289.546 545.22 295.794 544.016C299.278 543.225 303.365 542.418 305.674 539.667C310.428 532.109 305.422 525.622 297.606 523.298L295.92 522.729C294.876 515.035 294.015 507.322 293.163 499.62C291.895 487.039 290.09 469.249 289.072 456.807C288.615 449.424 287.653 442.144 288.246 434.693C288.873 430.867 294.549 431.684 293.961 435.621V435.619Z" fill="black"/>
<path d="M275.901 530.698C282.265 533.222 282.393 542.432 278.232 547.078C276.725 548.835 274.202 550.001 271.844 549.727C271.327 549.652 270.856 549.389 270.523 548.988C270.189 548.587 270.015 548.077 270.036 547.556C270.057 547.035 270.27 546.541 270.634 546.167C270.998 545.794 271.488 545.569 272.009 545.534C274.475 545.329 275.947 542.84 276.479 540.488C277.097 537.783 276.415 534.828 274.894 532.54L274.674 532.109C274.24 531.336 275.084 530.385 275.906 530.703L275.901 530.698Z" fill="#3A3A3A"/>
<path d="M294.429 528.638C301.432 530.608 301.592 540.072 298.303 545.352C297.19 547.637 291.367 551.894 290.162 547.73C290.077 547.215 290.186 546.688 290.467 546.249C290.749 545.809 291.183 545.49 291.687 545.352C294.152 544.473 295.443 541.341 295.825 538.743C296.317 535.69 295.639 532.777 293.568 530.554C292.687 529.789 293.244 528.409 294.42 528.638H294.429Z" fill="#3A3A3A"/>
<path d="M290.608 443.59C288.444 447.925 285.684 451.936 282.409 455.509C281 457.04 279.398 458.643 277.604 460.276C265.158 471.587 243.564 484.098 215.233 483.126C184.631 482.071 150.51 473.578 141.111 445.35C140.857 444.598 140.626 443.847 140.406 443.088C137.809 434.247 137.216 425.326 137.751 416.318C138.455 404.466 141.116 392.452 143.771 380.286C146.789 366.446 149.794 352.397 149.887 338.101L219.336 297.659L247.965 280.98C270.729 316.756 313.989 397.036 290.608 443.59Z" fill="white"/>
<path d="M277.428 460.803C264.982 472.114 243.388 484.625 215.057 483.653C184.455 482.599 150.334 474.106 140.935 445.877C140.681 445.125 140.45 444.374 140.23 443.615C137.633 434.774 137.039 425.854 137.575 416.846C138.675 422.532 145.675 449.113 180.227 451.085C220.324 453.381 219 403.122 213.044 393.175C207.522 383.959 158.054 412.509 143.595 380.81C146.613 366.97 149.617 352.92 149.711 338.625L219.16 298.186L263.194 400.659L277.428 460.803Z" fill="black"/>
<path d="M150.449 463.173C141.727 456.915 137.457 446.25 135.699 435.939C130.861 408.076 141.875 380.889 145.634 353.724C146.38 348.538 146.835 343.316 146.997 338.08C147.002 337.314 147.312 336.581 147.859 336.043C148.405 335.504 149.144 335.205 149.912 335.21C150.679 335.215 151.414 335.524 151.953 336.07C152.492 336.615 152.792 337.352 152.787 338.119C152.863 349.059 151.229 359.935 149.109 370.592C143.023 400.608 132.223 434.148 152.507 461.132C153.476 462.436 151.775 464.164 150.449 463.164V463.173Z" fill="black"/>
<path d="M250.41 279.43C278.187 322.897 327.495 415.751 282.282 460.13C268.636 473.469 250.743 482.291 231.865 485.081C219.891 486.793 207.582 486.364 195.966 482.864C195.632 482.76 195.347 482.54 195.161 482.244C194.976 481.949 194.903 481.597 194.954 481.252C195.006 480.907 195.18 480.591 195.444 480.363C195.708 480.135 196.046 480.008 196.395 480.006C207.991 479.75 219.542 481.131 230.986 479.271C250.546 476.199 269.324 466.265 282.083 451.047C291 440.052 294.137 425.63 294.068 411.674C292.941 366.73 268.451 320.451 245.52 282.527C243.619 279.419 248.162 276.213 250.407 279.43H250.41Z" fill="black"/>
<path d="M211.666 121.47C186.423 115.777 181.046 102.985 181.271 92.6054C181.553 79.4931 185.277 62.8742 200.917 55.8487C223.207 45.8299 247.79 55.5587 252.42 79.3683C255.188 93.595 251.122 104.802 245.975 112.724C240.194 121.632 230.373 125.689 211.666 121.47Z" fill="#0C5166"/>
<path d="M181.94 105.046C181.674 90.9286 184.773 71.1581 202.534 63.1835C221.113 54.8398 241.212 59.5855 251.102 74.4169C244.235 54.2545 221.592 46.5646 200.917 55.8487C179.496 65.4738 180.431 93.087 181.94 105.046Z" fill="white"/>
<path d="M180.421 104.621C176.371 91.4383 178.73 73.7542 187.265 62.6667C191.921 56.601 198.861 52.6954 206.161 50.6776C224.666 45.183 245.839 52.8694 253.112 71.5501C257.139 81.9591 257.195 93.7198 253.43 104.185C250.925 111.16 246.769 117.408 241.701 122.667C241.165 123.2 240.44 123.503 239.683 123.509C238.926 123.516 238.197 123.226 237.651 122.702C237.106 122.178 236.787 121.462 236.765 120.706C236.742 119.951 237.016 119.217 237.529 118.661C244.397 111.595 249.132 102.57 250.181 92.7847C251.865 75.9935 244.247 60.0671 226.918 55.8733C217.67 53.6322 207.232 55.5358 199.056 60.3044C190.72 65.4017 186.48 74.5206 184.932 84.1351C183.916 90.6737 183.831 97.3564 183.294 104.273C183.197 105.855 180.887 106.129 180.421 104.614V104.621Z" fill="black"/>
<path d="M91.9256 159.012C91.9256 159.012 63.8694 125.761 37.2484 140.263C15.7903 151.936 8.70096 177.364 24.9116 195.43C45.7675 218.67 74.5685 208.261 74.5685 208.261" fill="#0C5166"/>
<path d="M22.9306 193.032C15.0665 175.649 23.2828 155.332 42.0362 145.123C57.5196 136.686 73.4697 143.78 84.5245 151.679C74.4312 142.833 55.4999 130.317 37.2466 140.254C16.7235 151.426 9.34363 175.181 22.9306 193.032Z" fill="white"/>
<path d="M59.3035 213.467C49.027 213.467 34.6283 210.588 22.7564 197.356C15.012 188.728 11.7808 177.985 13.6649 167.11C15.7586 154.982 23.8516 144.26 35.8679 137.718C58.0392 125.645 80.8074 143.954 89.5678 152.377C90.1143 152.91 90.4275 153.638 90.4391 154.4C90.4506 155.163 90.1596 155.899 89.6295 156.449C89.0993 156.998 88.3731 157.316 87.6091 157.333C86.8451 157.35 86.1054 157.065 85.5512 156.539C77.71 148.994 57.4423 132.551 38.6343 142.791C28.1781 148.482 21.154 157.705 19.3632 168.091C17.7925 177.19 20.5289 186.214 27.0688 193.502C39.4143 207.259 54.646 208.618 65.2535 207.33C65.6309 207.283 66.0137 207.312 66.3801 207.413C66.7464 207.515 67.0892 207.687 67.3887 207.921C67.6883 208.155 67.9388 208.445 68.1259 208.776C68.3131 209.106 68.4332 209.47 68.4795 209.847C68.5257 210.223 68.4972 210.605 68.3955 210.971C68.2938 211.337 68.1209 211.679 67.8868 211.978C67.6526 212.277 67.3618 212.527 67.0308 212.714C66.6999 212.901 66.3353 213.02 65.9579 213.067C63.7499 213.334 61.5277 213.468 59.3035 213.467Z" fill="black"/>
<path d="M311.606 258.566C305.158 272.132 294.413 283.305 282.376 292.458C280.132 294.163 277.851 295.797 275.531 297.362C263.779 305.322 251.375 311.527 240.875 316.28C187.696 340.36 102.015 346.055 75.9579 310.616C72.9898 306.627 70.5502 302.272 68.6995 297.659C63.6264 284.859 64.4734 272.817 62.0082 259.165C57.3119 233.248 46.3486 201.747 62.2899 169.214C62.2899 169.214 67.2028 155.75 78.3844 144.301C67.7029 142.04 60.8935 132.7 61.1894 127.427C62.0804 111.666 101.142 123.657 112.607 115.408C98.8582 108.704 91.1437 85.3233 107.39 84.4919C129.822 91.709 145.923 91.1307 160.149 91.9902C173.986 93.0079 178.089 93.138 182.025 92.9727C260.063 105.05 285.528 148.252 306.854 189.772C321.168 217.645 320.298 240.276 311.606 258.566Z" fill="white"/>
<path d="M311.606 258.566C305.158 272.132 294.413 283.305 282.376 292.458C280.132 294.163 277.851 295.797 275.531 297.362C272.506 269.163 268.901 234.419 268.901 234.419C268.901 234.419 285.883 268.144 311.606 258.566Z" fill="#E8E8E8"/>
<path d="M282.376 292.458C268.736 302.828 253.437 310.588 240.875 316.28C187.696 340.36 102.015 346.055 75.9579 310.616C72.9898 306.627 70.5502 302.272 68.6995 297.659C68.6995 297.659 104.294 334.219 181.748 311.747C204.958 305.011 222.317 285.682 226.744 261.964L235.02 217.589L282.376 292.458Z" fill="#0C5166"/>
<path d="M148.216 338.657C112.597 338.657 86.1059 329.308 73.6212 312.328C63.3993 298.429 62.1755 286.236 60.8936 273.327C60.4534 268.915 59.9973 264.363 59.1503 259.677C58.4178 255.625 57.5373 251.476 56.6058 247.081C51.5591 223.284 45.8398 196.318 59.624 168.075C60.1751 166.614 64.359 155.995 73.1828 145.691C64.1371 141.912 57.9423 133.454 58.291 127.256C58.9584 115.381 74.5633 115.577 88.3299 115.747C94.9191 115.828 101.67 115.923 106.439 114.845C98.941 108.762 94.0545 98.4989 95.6393 90.7352C96.761 85.253 100.989 81.9257 107.24 81.6076C107.591 81.5899 107.941 81.6358 108.275 81.7429C126.583 87.6329 140.589 88.2358 152.951 88.7508C155.506 88.8598 157.92 88.9617 160.331 89.1023C174.418 90.1358 178.228 90.2378 181.91 90.0831C182.099 90.0751 182.289 90.0857 182.476 90.1148C218.23 95.6462 246.103 108.108 267.685 128.213C286.808 146.028 298.796 167.739 309.435 188.452C321.344 211.634 323.913 233.315 317.072 252.89C308.116 278.519 283.582 300.114 242.069 318.909C214.775 331.267 179.697 338.648 148.246 338.651L148.216 338.657ZM83.7921 121.493C72.2372 121.493 64.3713 122.337 64.0702 127.58C63.866 131.225 69.5096 139.472 78.9726 141.466C79.4793 141.572 79.9481 141.813 80.3298 142.163C80.7115 142.512 80.9922 142.958 81.1426 143.452C81.293 143.947 81.3076 144.473 81.1848 144.975C81.0621 145.478 80.8064 145.938 80.4447 146.308C69.8653 157.144 65.0475 170.068 65 170.198C64.9652 170.293 64.9252 170.386 64.8802 170.476C51.8937 196.977 57.4035 222.955 62.2635 245.881C63.2056 250.319 64.0931 254.509 64.8415 258.645C65.7219 263.549 66.1974 268.226 66.6482 272.751C67.9089 285.376 68.9989 296.279 78.2823 308.906C102.457 341.775 184.888 338.451 239.669 313.652C279.664 295.548 303.191 275.05 311.598 250.992C317.896 232.967 315.433 212.815 304.274 191.094C281.02 145.811 255.753 107.395 181.863 95.8729C178.035 96.0206 173.939 95.8993 159.94 94.8728C157.619 94.7322 155.231 94.632 152.701 94.5213C140.095 93.994 125.823 93.3805 107.038 87.4097C103.746 87.7015 101.873 89.1674 101.318 91.8865C100.086 97.947 105.631 108.785 113.877 112.803C114.327 113.022 114.712 113.354 114.995 113.766C115.278 114.178 115.449 114.656 115.492 115.154C115.535 115.652 115.447 116.152 115.239 116.607C115.03 117.061 114.707 117.453 114.301 117.746C108.687 121.788 98.7667 121.662 88.263 121.528C86.7222 121.505 85.2272 121.493 83.7921 121.493Z" fill="black"/>
<path d="M206.251 247.087C206.251 247.087 176.471 254.958 168.182 220.307C159.894 185.655 166.527 180.455 183.513 174.362C200.498 168.27 232.426 173.078 245.797 180.85C259.167 188.622 268.789 208.363 267.767 217.663C266.931 225.29 257.253 233.681 240.396 239.377C223.539 245.074 213.189 246.32 206.251 247.087Z" fill="#0C5166"/>
<path d="M123.454 272.415C123.454 272.415 142.761 262.173 130.172 234.134C117.583 206.096 111.604 206.011 99.8144 210.769C88.0253 215.527 73.7797 235.553 70.6242 247.878C67.4687 260.202 72.0946 278.75 77.1589 284.573C81.311 289.348 90.4289 290.009 101.963 285.06C113.496 280.11 119.476 275.529 123.454 272.415Z" fill="#0C5166"/>
<path d="M220.644 133.533C220.857 130.819 198.41 114.093 184.636 127.675C179.589 132.649 183.425 137.398 187.785 137.215C191.935 137.04 196.983 134.199 202.16 133.7C212.255 132.737 220.433 136.245 220.644 133.533Z" fill="#05303A"/>
<path d="M74.3891 201.16C72.4838 199.956 72.5067 176.827 88.3423 174.443C94.1532 173.564 95.3946 178.46 93.1143 181.252C90.9431 183.912 86.555 185.84 83.6601 189.018C78.0165 195.219 76.2943 202.364 74.3891 201.16Z" fill="#05303A"/>
<path d="M177.262 250.47C182.041 257.661 177.485 264.31 170.012 266.321C162.565 268.325 157.04 262.248 155.717 259.967C155.717 259.967 160.151 273.984 149.049 273.747C147.719 273.707 146.411 273.404 145.2 272.856C143.989 272.308 142.899 271.525 141.993 270.554C141.086 269.582 140.382 268.441 139.921 267.196C139.459 265.951 139.25 264.628 139.304 263.301C139.304 263.301 128.901 252.404 149.14 244.007C169.38 235.611 177.262 250.47 177.262 250.47Z" fill="white"/>
<path d="M178.455 252.69C181.058 258.99 176.71 264.523 170.003 266.323C162.56 268.323 157.027 262.247 155.708 259.967C155.708 259.967 160.146 273.983 149.038 273.744C145.178 273.663 141.098 271.077 139.756 266.727C140.838 267.06 141.96 267.244 143.092 267.275C157.179 267.572 151.558 249.783 151.558 249.783C153.234 252.671 160.248 260.385 169.704 257.847C173.307 256.88 176.371 255.063 178.455 252.69Z" fill="#0C5166"/>
<path d="M178.165 249.869C185.293 258.471 177.254 268.46 167.508 269.003C161.863 269.246 156.64 265.799 153.838 261.051L157.723 259.137C158.378 260.653 158.802 262.259 158.98 263.901C160.512 274.478 148.1 280.201 140.827 272.513C138.441 270.037 137.381 266.361 138.219 263.24C138.284 263.001 138.427 262.79 138.625 262.641C138.824 262.492 139.066 262.414 139.314 262.419C139.563 262.423 139.802 262.511 139.995 262.667C140.187 262.823 140.322 263.039 140.378 263.28C141.329 268.808 147.376 274.072 152.408 269.973C154.543 268.2 154.647 265.12 154.134 262.503C154.007 261.838 153.839 261.182 153.63 260.538C153.467 260.025 153.502 259.47 153.728 258.982C153.954 258.493 154.354 258.107 154.851 257.898C155.347 257.689 155.904 257.673 156.412 257.853C156.92 258.033 157.342 258.395 157.596 258.87C158.36 259.94 159.269 260.899 160.297 261.719C162.324 263.354 164.763 264.467 167.341 264.421C171.1 264.263 175.358 262.11 176.93 258.74C178.013 256.51 177.714 253.678 176.349 251.075C175.745 249.929 177.343 248.883 178.158 249.876L178.165 249.869Z" fill="black"/>
<path d="M151.063 244.679C151.829 248.556 153.687 252.168 155.604 255.61C156.256 256.752 156.95 257.916 157.645 258.972C157.825 259.21 157.954 259.482 158.024 259.771C158.094 260.061 158.104 260.361 158.054 260.655C158.003 260.948 157.893 261.228 157.729 261.477C157.566 261.726 157.353 261.94 157.104 262.103C156.855 262.267 156.575 262.379 156.282 262.431C155.988 262.482 155.687 262.473 155.396 262.404C155.106 262.336 154.833 262.208 154.594 262.03C154.355 261.851 154.156 261.626 154.007 261.368C153.303 259.948 152.912 258.438 152.414 256.988C151.199 253.01 150.093 248.937 150.16 244.73C150.172 244.183 150.994 244.13 151.07 244.675L151.063 244.679Z" fill="black"/>
<path d="M163.838 237.305C167.36 245.455 154.465 255.131 154.465 255.131C154.465 255.131 140.061 255.835 137.399 248.291C135.883 243.993 147.554 239.135 147.554 239.135C147.554 239.135 162.03 233.122 163.838 237.305Z" fill="black"/>
<path d="M155.309 239.884C156.221 241.993 153.041 244.434 150.397 245.531C147.754 246.628 143.755 247.171 142.843 245.06C142.375 243.977 148.608 241.388 148.608 241.388C148.608 241.388 154.84 238.801 155.309 239.884Z" fill="white"/>
<path d="M211.387 229.463C220.916 224.013 223.512 210.66 217.186 199.638C210.859 188.615 198.005 184.098 188.476 189.548C178.947 194.998 176.35 208.351 182.677 219.373C189.004 230.395 201.857 234.913 211.387 229.463Z" fill="black"/>
<path d="M207.012 211.943C210.315 210.686 211.642 206.132 209.976 201.772C208.31 197.412 204.281 194.897 200.978 196.155C197.675 197.412 196.349 201.966 198.015 206.326C199.681 210.686 203.709 213.201 207.012 211.943Z" fill="white"/>
<g opacity="0.35">
<path d="M203.474 225.924C204.953 224.448 204.142 221.244 201.663 218.769C199.183 216.294 195.974 215.484 194.494 216.961C193.015 218.437 193.826 221.641 196.306 224.116C198.786 226.591 201.995 227.401 203.474 225.924Z" fill="white"/>
</g>
<path d="M116.771 265.592C125.886 260.379 128.37 247.607 122.319 237.065C116.268 226.523 103.974 222.203 94.8588 227.416C85.7438 232.628 83.2599 245.4 89.3109 255.942C95.3618 266.485 107.656 270.805 116.771 265.592Z" fill="black"/>
<path d="M112.591 248.837C115.75 247.634 117.019 243.278 115.425 239.107C113.832 234.937 109.979 232.531 106.819 233.734C103.66 234.937 102.391 239.293 103.984 243.464C105.578 247.634 109.431 250.04 112.591 248.837Z" fill="white"/>
<g opacity="0.35">
<path d="M109.205 262.208C110.62 260.795 109.845 257.731 107.473 255.363C105.101 252.996 102.031 252.222 100.616 253.635C99.201 255.047 99.9764 258.112 102.348 260.479C104.72 262.847 107.79 263.621 109.205 262.208Z" fill="white"/>
</g>
<path d="M297.745 548.531C297.745 548.531 288.136 552.794 263.76 552.794C239.384 552.794 229.783 548.531 229.783 548.531V15.7137C229.783 15.7137 246.88 11.9417 263.76 11.9417C280.639 11.9417 297.745 15.7137 297.745 15.7137V548.531Z" fill="#30A010"/>
<path d="M297.743 15.7137V548.53C297.743 548.53 290.171 551.888 271.453 552.639C269.072 552.741 266.522 552.792 263.768 552.792C259.926 552.792 256.445 552.683 253.319 552.502C248.898 552.258 245.17 551.86 242.08 551.412C239.931 551.101 238.093 550.762 236.545 550.437C231.87 549.447 229.792 548.53 229.792 548.53V15.7137C229.792 15.7137 232.384 15.1425 236.545 14.4429C238.165 14.1757 240.033 13.8787 242.08 13.5975C245.425 13.1281 249.266 12.6799 253.319 12.3671C256.705 12.1069 260.243 11.9417 263.768 11.9417C266.345 11.9417 268.928 12.0278 271.453 12.1808C280.289 12.739 289.074 13.9196 297.743 15.7137Z" fill="#055256"/>
<path d="M271.458 12.1825V552.639C269.078 552.741 266.528 552.792 263.774 552.792C259.931 552.792 256.45 552.683 253.325 552.502C248.903 552.258 245.175 551.86 242.085 551.412C239.937 551.101 238.098 550.762 236.55 550.437V14.4429C238.17 14.1757 240.039 13.8787 242.085 13.5975C245.431 13.1281 249.271 12.6799 253.325 12.3671C256.711 12.1069 260.248 11.9417 263.774 11.9417C266.352 11.9523 268.928 12.0296 271.458 12.1825Z" fill="#0A5E5E"/>
<path d="M253.321 12.3688V552.505C248.899 552.261 245.172 551.864 242.081 551.416V13.5975C245.431 13.1282 249.271 12.6799 253.321 12.3688Z" fill="#148484"/>
<path d="M263.768 555.682C239.07 555.682 229.031 551.356 228.616 551.171C228.105 550.945 227.67 550.575 227.365 550.107C227.06 549.639 226.898 549.093 226.897 548.535V15.7137C226.897 15.0558 227.122 14.4176 227.535 13.9047C227.948 13.3917 228.523 13.0347 229.167 12.8926C229.871 12.7362 246.776 9.05208 263.768 9.05208C280.761 9.05208 297.658 12.7432 298.37 12.8926C299.013 13.0347 299.589 13.3917 300.002 13.9047C300.414 14.4176 300.639 15.0558 300.639 15.7137V548.531C300.639 549.09 300.476 549.636 300.171 550.104C299.866 550.572 299.432 550.941 298.921 551.168C298.505 551.356 288.466 555.682 263.768 555.682ZM232.685 546.48C236.35 547.596 246.068 549.904 263.768 549.904C281.469 549.904 291.175 547.598 294.85 546.48V18.076C289.701 17.0847 276.586 14.8313 263.768 14.8313C250.951 14.8313 237.825 17.0829 232.685 18.076V546.48Z" fill="#000500"/>
<path d="M266.785 332.656C266.822 337.488 265.635 342.248 263.45 346.048C257.748 355.944 248.086 357.38 237.544 364.141C220.588 375.02 183.081 395.975 158.052 385.508C129.793 373.698 146.561 336.208 146.561 336.208C149.013 336.115 151.371 335.964 153.63 335.776C171.768 334.259 183.972 329.924 194.131 325.144C194.135 325.145 194.14 325.145 194.145 325.144L194.275 325.079C194.31 325.063 194.347 325.049 194.391 325.028C209.811 317.731 220.514 309.469 240.204 308.695C256.79 308.052 264.758 317.835 266.441 328.487C266.661 329.866 266.775 331.26 266.785 332.656Z" fill="#FDFFFF"/>
<path d="M266.438 328.48C250.041 299.81 198.489 323.114 194.393 325.021C209.813 317.724 220.516 309.462 240.206 308.688C256.792 308.045 264.767 317.826 266.438 328.48Z" fill="white"/>
<path d="M266.785 332.656C266.822 337.488 265.635 342.248 263.45 346.048C257.748 355.944 248.086 357.38 237.544 364.141C220.588 375.02 183.081 395.975 158.052 385.508C129.793 373.698 146.561 336.208 146.561 336.208C149.013 336.115 151.371 335.964 153.63 335.776C152.681 339.502 149.151 355.669 156.996 363.758C170.193 377.368 198.915 374.594 218.077 361.844C234.446 350.945 263.7 349.73 266.785 332.656Z" fill="black"/>
<path d="M173.488 391.243C167.665 391.243 162.072 390.322 156.936 388.176C149.248 384.961 143.905 379.704 141.068 372.547C134.594 356.234 143.534 335.892 143.917 335.034L144.65 333.396L146.446 333.324C174.691 332.208 189.56 324.446 202.678 317.6C213.684 311.854 224.08 306.428 240.095 305.802C251.578 305.357 260.664 309.669 265.684 317.953C270.902 326.566 271.013 338.706 265.955 347.482C261.638 354.979 255.284 358.113 248.558 361.431C245.501 362.939 242.34 364.498 239.111 366.571C223.353 376.681 196.621 391.243 173.488 391.243ZM148.549 339.014C146.694 343.9 141.831 358.812 146.457 370.437C148.702 376.083 152.972 380.258 159.17 382.845C183.139 392.864 220.87 371.402 235.978 361.71C239.482 359.464 242.791 357.831 245.992 356.253C252.418 353.089 257.494 350.579 260.935 344.603C264.925 337.676 264.841 327.729 260.729 320.945C256.792 314.441 249.725 311.209 240.321 311.576C225.605 312.151 216.223 317.05 205.358 322.72C191.993 329.696 176.883 337.585 148.549 339.014Z" fill="black"/>
<path d="M325.183 363.909C324.495 368.302 323.092 372.552 321.031 376.493C308.322 401.081 258.993 396.003 264.064 360.45C264.458 357.684 265.379 355.019 266.778 352.599C273.603 340.629 290.478 335.307 297.338 331.506C297.996 321.041 297.743 307.728 297.743 307.728C297.743 307.728 329.895 333.637 325.183 363.909Z" fill="white"/>
<path d="M325.183 363.909C324.495 368.302 323.092 372.552 321.031 376.493C308.322 401.081 258.993 396.003 264.064 360.45C264.458 357.684 265.379 355.019 266.778 352.599C267.669 358.875 270.946 370.894 282.937 377.649C296.354 385.213 316.905 381.282 325.183 363.909Z" fill="black"/>
<path d="M293.013 394.6C289.04 394.615 285.089 394.019 281.298 392.834C269.84 389.187 258.542 378.658 261.197 360.048C263.487 343.972 280.44 336.219 290.565 331.586C292.053 330.904 293.401 330.287 294.543 329.721C295.072 319.767 294.853 307.925 294.851 307.799L294.735 301.606L299.564 305.496C300.002 305.848 310.411 314.309 318.669 327.339C329.849 344.972 331.554 362.429 323.6 377.825C317.68 389.278 305.091 394.6 293.013 394.6ZM300.687 314.38C300.687 319.196 300.594 325.845 300.227 331.703L300.129 333.285L298.741 334.052C297.181 334.915 295.232 335.809 292.976 336.837C283.341 341.248 268.778 347.911 266.929 360.863C264.302 379.279 277.332 385.506 283.057 387.329C295.079 391.155 312.036 387.601 318.451 375.176C331.707 349.517 310.65 324.279 300.689 314.373L300.687 314.38Z" fill="black"/>
<path d="M297.704 332.969C300.817 332.471 304.242 331.649 306.956 330.058C308.275 329.278 309.639 331.032 308.572 332.113C305.801 334.821 302.561 336.507 299.064 338.043C295.32 339.356 293.797 333.704 297.701 332.969H297.704Z" fill="black"/>
<path d="M244.062 314.928C249.317 313.576 254.756 313.276 260.018 314.877C262.608 315.861 268.26 317.847 265.931 321.556C265.686 321.9 265.369 322.186 265.002 322.395C264.635 322.604 264.227 322.731 263.806 322.767C263.385 322.803 262.961 322.747 262.564 322.603C262.167 322.459 261.806 322.231 261.506 321.934C259.502 319.974 256.799 318.77 253.987 318.157C250.904 317.526 247.741 317.391 244.615 317.756C242.854 317.955 242.36 315.401 244.062 314.928Z" fill="black"/>
<path d="M250.856 330.251C255.402 328.692 260.291 327.854 264.925 329.865C267.48 331.06 271.92 334.93 268.465 337.599C267.829 338.033 267.047 338.198 266.29 338.057C265.533 337.916 264.863 337.48 264.427 336.846C263.909 335.899 263.46 334.997 262.49 334.301C259.481 332.297 255.124 332.456 251.624 333.037C249.898 333.341 249.231 330.865 250.865 330.258L250.856 330.251Z" fill="black"/>
<path d="M292.326 379.402C289.509 383.908 285.214 387.512 279.977 388.867C278.181 389.385 276.29 389.461 274.411 389.433C273.64 389.421 272.906 389.104 272.369 388.551C271.832 387.999 271.537 387.256 271.548 386.487C271.548 384.662 273.319 383.298 275.093 383.694C280.668 384.924 286.436 381.936 289.992 377.718C291.14 376.385 293.235 377.904 292.326 379.403V379.402Z" fill="black"/>
<path d="M282.376 362.632C278.773 363.421 275.508 365.741 273.274 368.641L272.698 369.469C271.865 370.622 271.279 371.94 270.666 373.216C270.522 373.542 270.314 373.835 270.054 374.078C269.794 374.321 269.487 374.509 269.152 374.631C268.817 374.753 268.461 374.805 268.106 374.786C267.75 374.767 267.402 374.676 267.082 374.519C266.762 374.362 266.478 374.142 266.245 373.872C266.013 373.602 265.838 373.288 265.731 372.949C265.623 372.61 265.585 372.253 265.62 371.899C265.654 371.545 265.76 371.201 265.931 370.889C266.42 370.07 266.959 369.283 267.516 368.511C269.01 366.496 270.827 364.739 272.892 363.312C274.944 361.912 277.242 360.91 279.666 360.357C280.867 360.181 283.364 359.322 283.563 361.264C283.575 361.599 283.459 361.927 283.239 362.18C283.02 362.434 282.712 362.595 282.377 362.632H282.376Z" fill="black"/>
<path d="M306.148 425.07C305.808 433.268 297.746 436.027 297.746 436.027C297.746 436.027 285.968 439.386 263.772 439.386C241.576 439.386 229.796 436.027 229.796 436.027C229.796 436.027 221.736 433.268 221.394 425.07C221.062 417.002 229.796 414.105 229.796 414.105C229.796 414.105 244.605 416.527 263.772 416.527C282.939 416.527 297.743 414.111 297.743 414.111C297.743 414.111 306.477 417.002 306.148 425.07Z" fill="#52BF2E"/>
<path d="M306.148 425.07C305.808 433.268 297.746 436.027 297.746 436.027C297.746 436.027 285.968 439.386 263.772 439.386C241.576 439.386 229.796 436.027 229.796 436.027C229.796 436.027 221.736 433.268 221.394 425.07C221.062 417.002 229.796 414.105 229.796 414.105C229.796 414.105 244.605 416.527 263.772 416.527C282.939 416.527 297.743 414.111 297.743 414.111C297.743 414.111 306.477 417.002 306.148 425.07Z" fill="#0A5E5E"/>
<path d="M303.112 417.506C277.099 422.264 250.436 422.264 224.423 417.506C225.953 416.008 227.783 414.85 229.792 414.105C229.792 414.105 244.599 416.524 263.768 416.524C282.937 416.524 297.743 414.111 297.743 414.111C299.752 414.853 301.581 416.01 303.112 417.506Z" fill="#148484"/>
<path d="M306.148 425.07C305.808 433.268 297.747 436.027 297.747 436.027C297.747 436.027 285.966 439.386 263.772 439.386C241.578 439.386 229.796 436.027 229.796 436.027C229.796 436.027 221.736 433.268 221.395 425.07C221.296 423.173 221.765 421.29 222.742 419.66C225.108 424.054 229.796 425.662 229.796 425.662C229.796 425.662 241.578 429.021 263.772 429.021C285.966 429.021 297.747 425.662 297.747 425.662C297.747 425.662 302.436 424.059 304.802 419.66C305.779 421.29 306.247 423.173 306.148 425.07Z" fill="#055256"/>
<path d="M263.768 442.276C241.423 442.276 229.495 438.947 228.998 438.806L228.854 438.76C228.449 438.621 218.917 435.245 218.5 425.189C218.082 415.061 228.44 411.509 228.889 411.363C229.333 411.216 229.807 411.178 230.269 411.253C230.416 411.277 245.093 413.64 263.777 413.64C282.462 413.64 297.139 411.277 297.285 411.253C297.747 411.178 298.22 411.216 298.664 411.363C299.106 411.509 309.463 415.054 309.053 425.189C308.636 435.245 299.104 438.621 298.697 438.76L298.555 438.806C298.048 438.947 286.114 442.276 263.768 442.276ZM230.664 433.271C231.734 433.558 243.266 436.496 263.768 436.496C284.27 436.496 295.769 433.563 296.873 433.271C297.551 433.013 303.019 430.756 303.26 424.95C303.457 420.164 299.034 417.788 297.422 417.079C294.061 417.584 280.68 419.417 263.775 419.417C246.871 419.417 233.488 417.584 230.127 417.079C228.5 417.782 224.094 420.159 224.291 424.95C224.525 430.768 230.016 433.023 230.669 433.269L230.664 433.271Z" fill="#000500"/>
<path d="M306.148 289.441C305.808 297.641 297.746 300.401 297.746 300.401C297.746 300.401 285.968 303.758 263.772 303.758C241.576 303.758 229.796 300.401 229.796 300.401C229.796 300.401 221.736 297.641 221.394 289.441C221.062 281.374 229.796 278.477 229.796 278.477C229.796 278.477 244.605 280.901 263.772 280.901C282.939 280.901 297.746 278.477 297.746 278.477C297.746 278.477 306.477 281.374 306.148 289.441Z" fill="#0A5E5E"/>
<path d="M304.154 283.082C295.478 284.179 280.831 286.346 263.768 286.346C246.705 286.346 232.058 284.179 223.381 283.082C225.857 279.788 229.792 278.481 229.792 278.481C229.792 278.481 244.599 280.901 263.768 280.901C282.937 280.901 297.743 278.481 297.743 278.481C297.743 278.481 301.68 279.788 304.154 283.082Z" fill="#148484"/>
<path d="M306.148 289.445C305.808 297.645 297.746 300.402 297.746 300.402C297.746 300.402 285.966 303.761 263.772 303.761C241.578 303.761 229.796 300.402 229.796 300.402C229.796 300.402 221.736 297.645 221.395 289.445C221.379 289.024 221.389 288.601 221.424 288.181C222.944 289.642 224.74 290.786 226.707 291.547C226.707 291.547 239.562 295.21 263.779 295.21C287.996 295.21 300.851 291.547 300.851 291.547C302.818 290.786 304.614 289.642 306.133 288.181C306.163 288.602 306.168 289.024 306.148 289.445Z" fill="#055256"/>
<path d="M263.768 306.647C241.423 306.647 229.495 303.32 228.998 303.178C228.949 303.164 228.901 303.15 228.854 303.132C228.449 302.993 218.917 299.617 218.5 289.561C218.082 279.435 228.44 275.881 228.889 275.735C229.333 275.588 229.807 275.55 230.269 275.626C230.416 275.649 245.093 278.011 263.777 278.011C282.462 278.011 297.139 275.649 297.285 275.626C297.747 275.552 298.22 275.589 298.664 275.735C299.106 275.881 309.463 279.426 309.053 289.561C308.636 299.617 299.104 302.995 298.697 303.132C298.652 303.15 298.602 303.164 298.555 303.178C298.048 303.32 286.114 306.647 263.768 306.647ZM230.664 297.643C231.734 297.929 243.266 300.87 263.768 300.87C284.27 300.87 295.769 297.936 296.873 297.645C297.551 297.386 303.019 295.128 303.26 289.322C303.457 284.538 299.034 282.161 297.422 281.453C294.061 281.957 280.68 283.791 263.775 283.791C246.871 283.791 233.488 281.956 230.127 281.451C228.5 282.154 224.094 284.532 224.291 289.324C224.525 295.14 230.016 297.4 230.669 297.643H230.664Z" fill="#000500"/>
<path d="M306.148 153.815C305.808 162.013 297.746 164.772 297.746 164.772C297.746 164.772 283.754 166.518 263.772 166.518C243.789 166.518 229.796 164.772 229.796 164.772C229.796 164.772 221.736 162.013 221.394 153.815C221.062 145.745 229.796 142.849 229.796 142.849L263.772 143.105L297.746 142.849C297.746 142.849 306.477 145.745 306.148 153.815Z" fill="#0A5E5E"/>
<path d="M304.762 148.349L263.768 148.688L222.773 148.349C225.154 144.39 229.792 142.851 229.792 142.851L263.768 143.111L297.743 142.851C297.743 142.851 302.381 144.389 304.762 148.349Z" fill="#148484"/>
<path d="M306.148 153.815C305.808 162.013 297.747 164.772 297.747 164.772C297.747 164.772 283.758 166.52 263.772 166.52C243.786 166.52 229.796 164.772 229.796 164.772C229.796 164.772 221.736 162.013 221.395 153.815C221.368 153.209 221.397 152.602 221.483 152.001C222.749 153.012 224.163 153.823 225.675 154.407C225.675 154.407 241.365 156.364 263.776 156.364C286.186 156.364 301.876 154.407 301.876 154.407C303.387 153.823 304.799 153.011 306.065 152.001C306.148 152.602 306.176 153.209 306.148 153.815Z" fill="#055256"/>
<path d="M263.768 169.407C243.833 169.407 230.012 167.711 229.431 167.639C229.234 167.614 229.04 167.569 228.852 167.506C228.447 167.367 218.915 163.99 218.498 153.935C218.081 143.807 228.438 140.254 228.887 140.107C229.189 140.008 229.505 139.958 229.822 139.961L263.797 140.216L297.729 139.961C298.046 139.96 298.361 140.009 298.662 140.107C299.104 140.254 309.462 143.798 309.051 153.933C308.613 163.992 299.088 167.367 298.681 167.507C298.493 167.571 298.299 167.616 298.102 167.641C297.519 167.711 283.703 169.407 263.768 169.407ZM230.488 161.946C232.738 162.204 245.908 163.628 263.768 163.628C281.629 163.628 294.792 162.204 297.049 161.946C298.204 161.466 303.036 159.134 303.258 153.695C303.464 148.705 298.655 146.334 297.229 145.742L263.795 145.995L230.317 145.742C228.88 146.338 224.083 148.7 224.289 153.695C224.51 159.148 229.347 161.471 230.491 161.946H230.488Z" fill="#000500"/>
<path d="M306.148 18.1868C305.808 26.3846 297.746 29.1442 297.746 29.1442C297.746 29.1442 279.84 26.7256 263.772 26.7256C247.704 26.7256 229.796 29.1442 229.796 29.1442C229.796 29.1442 221.736 26.3846 221.394 18.1868C221.062 10.119 229.796 7.22234 229.796 7.22234C229.796 7.22234 243.543 2.88965 263.772 2.88965C284.001 2.88965 297.746 7.22234 297.746 7.22234C297.746 7.22234 306.477 10.119 306.148 18.1868Z" fill="#0A5E5E"/>
<path d="M306.137 17.3009C303.561 13.6748 299.256 12.2458 299.256 12.2458C299.256 12.2458 284.899 7.72326 263.768 7.72326C242.638 7.72326 228.281 12.2458 228.281 12.2458C228.281 12.2458 223.974 13.6748 221.398 17.3009C221.703 9.90455 229.792 7.22584 229.792 7.22584C229.792 7.22584 243.543 2.89139 263.768 2.89139C283.994 2.89139 297.743 7.22584 297.743 7.22584C297.743 7.22584 305.834 9.90455 306.137 17.3009Z" fill="#148484"/>
<path d="M305.015 22.741C302.726 27.4428 297.743 29.1477 297.743 29.1477C297.743 29.1477 279.84 26.7274 263.768 26.7274C247.697 26.7274 229.792 29.1477 229.792 29.1477C229.792 29.1477 224.814 27.4428 222.52 22.741C224.872 22.3297 245.307 18.8617 263.768 18.8617C282.23 18.8617 302.665 22.3226 305.015 22.741Z" fill="#148484"/>
<path d="M297.743 32.0338C297.613 32.0338 297.484 32.025 297.356 32.0074C297.179 31.9846 279.449 29.6152 263.768 29.6152C248.088 29.6152 230.357 31.9899 230.181 32.0074C229.735 32.0685 229.28 32.0239 228.854 31.8774C228.449 31.7385 218.917 28.362 218.5 18.3063C218.082 8.18027 228.44 4.62623 228.889 4.48034C229.509 4.28524 243.328 0 263.777 0C284.226 0 298.046 4.28524 298.623 4.46628C299.106 4.62623 309.463 8.18027 309.046 18.3063C308.629 28.362 299.097 31.7385 298.69 31.8774C298.385 31.982 298.065 32.0349 297.743 32.0338ZM263.768 5.77927C244.212 5.77927 230.798 9.93619 230.664 9.97838C230.445 10.0522 224.046 12.3143 224.284 18.0637C224.494 23.1083 228.651 25.4741 230.178 26.1754C233.826 25.7079 249.384 23.8324 263.768 23.8324C278.153 23.8324 293.703 25.7079 297.357 26.1754C298.889 25.4724 303.043 23.1065 303.253 18.062C303.492 12.237 296.898 9.97662 296.831 9.95904C296.764 9.94147 283.256 5.77927 263.768 5.77927Z" fill="#000500"/>
<path d="M323.695 393.502C323.315 393.501 322.951 393.352 322.681 393.085C322.059 392.475 307.746 377.551 329.999 325.602C330.132 325.294 330.368 325.041 330.668 324.887C330.967 324.734 331.311 324.689 331.64 324.761C331.969 324.834 332.262 325.018 332.469 325.283C332.677 325.548 332.785 325.876 332.776 326.212C332.763 326.641 331.543 369.235 330.937 379.581C330.279 390.804 324.491 393.291 324.246 393.394C324.071 393.466 323.884 393.502 323.695 393.502Z" fill="#0A5E5E"/>
<path d="M331.328 326.172C331.328 326.172 330.096 369.059 329.49 379.497C328.884 389.934 323.695 392.057 323.695 392.057C323.695 392.057 309.208 377.809 331.328 326.172ZM331.328 323.282C330.761 323.283 330.207 323.45 329.734 323.763C329.261 324.075 328.89 324.519 328.668 325.04C319.307 346.897 315.156 364.96 316.341 378.73C317.262 389.498 321.222 393.679 321.672 394.12C322.213 394.653 322.943 394.952 323.704 394.952C324.079 394.952 324.451 394.879 324.799 394.736C325.503 394.449 331.691 391.586 332.39 379.671C332.998 369.3 334.179 328.012 334.23 326.258C334.241 325.872 334.175 325.487 334.034 325.127C333.893 324.767 333.682 324.439 333.412 324.162C333.142 323.885 332.819 323.665 332.462 323.514C332.106 323.364 331.722 323.287 331.335 323.288L331.328 323.282Z" fill="black"/>
<path d="M330.023 332.123C327.99 341.487 326.523 350.969 325.884 360.528C325.273 370.091 325.454 379.709 324.299 389.241C324.85 379.651 324.582 370.072 325.167 360.478C325.871 350.899 327.437 341.378 330.02 332.123H330.023Z" fill="#148484"/>
<path d="M336.748 375.756C336.487 375.756 336.23 375.685 336.006 375.552C335.782 375.418 335.598 375.226 335.473 374.997C335.061 374.232 325.788 355.762 362.362 312.652C362.58 312.392 362.882 312.217 363.215 312.157C363.549 312.097 363.893 312.156 364.188 312.323C364.483 312.49 364.709 312.756 364.828 313.073C364.947 313.39 364.95 313.739 364.838 314.058C364.699 314.464 350.976 354.815 347.347 364.523C343.41 375.055 337.134 375.735 336.878 375.76L336.748 375.756Z" fill="#148484"/>
<path d="M363.466 313.585C363.466 313.585 349.654 354.209 345.991 364.01C342.328 373.81 336.748 374.311 336.748 374.311C336.748 374.311 327.104 356.439 363.466 313.585ZM363.466 310.695C363.046 310.695 362.63 310.787 362.248 310.963C361.867 311.139 361.528 311.397 361.256 311.717C345.866 329.856 336.574 345.9 333.64 359.406C331.351 369.97 333.899 375.129 334.198 375.682C334.446 376.141 334.813 376.525 335.262 376.792C335.71 377.06 336.222 377.201 336.745 377.201C336.832 377.201 336.919 377.197 337.005 377.189C337.762 377.122 344.521 376.203 348.701 365.02C352.337 355.29 365.641 316.174 366.206 314.513C366.354 314.078 366.396 313.615 366.329 313.161C366.262 312.706 366.087 312.275 365.819 311.902C365.551 311.528 365.198 311.224 364.789 311.014C364.379 310.805 363.926 310.695 363.466 310.695Z" fill="black"/>
<path d="M359.678 319.841C355.628 328.443 350.985 336.778 347.051 345.426C343.075 354.075 340.735 363.333 338.557 372.569C340.224 363.203 342.471 353.845 346.405 345.139C350.37 336.461 355.083 328.188 359.678 319.841Z" fill="#42B7B4"/>
<path d="M355.452 370.648C352.237 370.648 350.432 369.404 350.237 369.262C349.986 369.079 349.801 368.821 349.708 368.525C349.616 368.23 349.621 367.912 349.722 367.62C350.089 366.565 359.194 341.819 402.26 341.819C404.232 341.819 406.275 341.871 408.33 341.979C408.672 341.997 408.996 342.136 409.245 342.37C409.494 342.605 409.652 342.92 409.69 343.259C409.728 343.599 409.645 343.941 409.455 344.225C409.264 344.509 408.979 344.716 408.65 344.81C408.474 344.86 391.091 349.908 365.572 367.07C362.035 369.444 358.631 370.648 355.452 370.648Z" fill="#148484"/>
<path d="M402.255 343.264C404.192 343.264 406.178 343.315 408.242 343.42C408.242 343.42 390.809 348.361 364.748 365.873C360.874 368.481 357.726 369.212 355.437 369.212C352.6 369.212 351.073 368.101 351.073 368.101C351.073 368.101 359.714 343.274 402.244 343.272M402.244 340.383C379.409 340.383 366.048 347.498 358.86 353.467C350.855 360.111 348.439 366.869 348.338 367.154C348.135 367.739 348.125 368.374 348.311 368.965C348.496 369.557 348.867 370.073 349.368 370.437C349.751 370.715 351.834 372.102 355.437 372.102C358.914 372.102 362.591 370.815 366.365 368.277C391.649 351.282 408.86 346.257 409.031 346.208C409.689 346.019 410.259 345.604 410.639 345.036C411.02 344.468 411.187 343.784 411.11 343.105C411.032 342.426 410.717 341.796 410.219 341.327C409.72 340.858 409.072 340.581 408.388 340.544C406.308 340.437 404.243 340.383 402.251 340.383H402.244Z" fill="black"/>
<path d="M402.575 344.234C393.825 346.768 384.79 348.66 376.498 352.495C368.222 356.362 360.698 361.635 353.369 367.056C360.386 361.181 367.907 355.806 376.195 351.848C384.572 348.023 393.639 346.202 402.575 344.234Z" fill="#42B7B4"/>
<path d="M401.609 408.569C401.316 408.568 401.031 408.48 400.79 408.316C400.564 408.161 377.983 392.816 356.592 387.795C352.57 386.852 349.763 385.089 348.247 382.557C347.157 380.728 346.801 378.555 347.252 376.475C347.336 376.159 347.526 375.881 347.791 375.688C347.981 375.547 352.526 372.272 360.036 372.272C370.083 372.272 385.664 378.189 402.843 406.371C402.976 406.59 403.049 406.84 403.053 407.096C403.058 407.352 402.994 407.605 402.869 407.828C402.743 408.052 402.561 408.238 402.34 408.368C402.119 408.497 401.867 408.566 401.61 408.567L401.609 408.569Z" fill="#0A5E5E"/>
<path d="M360.031 373.717C369.751 373.717 384.794 379.547 401.602 407.124C401.602 407.124 378.832 391.533 356.917 386.383C346.715 383.989 348.641 376.846 348.641 376.846C348.641 376.846 352.906 373.714 360.029 373.712M360.029 370.822C352.047 370.822 347.132 374.368 346.926 374.513C346.396 374.903 346.015 375.461 345.847 376.095C345.286 378.556 345.699 381.138 346.998 383.302C348.722 386.184 351.836 388.171 356.254 389.206C377.368 394.163 399.747 409.36 399.962 409.512C400.508 409.886 401.166 410.061 401.826 410.009C402.486 409.957 403.108 409.681 403.588 409.227C404.069 408.772 404.379 408.167 404.467 407.513C404.555 406.858 404.416 406.193 404.072 405.628C386.544 376.87 370.448 370.826 360.031 370.826L360.029 370.822Z" fill="black"/>
<path d="M397.574 403.417C382.431 388.441 370.895 382.564 350.147 378.017C370.323 381.249 383.912 388.141 397.574 403.417Z" fill="#148484"/>
<defs>
<filter id="filter0_f_19_305" x="0.117004" y="366.981" width="358.026" height="243.637" filterUnits="userSpaceOnUse" color-interpolation-filters="sRGB">
<feFlood flood-opacity="0" result="BackgroundImageFix"/>
<feBlend mode="normal" in="SourceGraphic" in2="BackgroundImageFix" result="shape"/>
<feGaussianBlur stdDeviation="40" result="effect1_foregroundBlur_19_305"/>
</filter>
</defs>
</svg>
