<svg width="242" height="279" viewBox="0 0 242 279" fill="none" xmlns="http://www.w3.org/2000/svg">
<g filter="url(#filter0_f_80_38)">
<path d="M106.881 223.37C140.801 231.737 169.783 232.502 171.614 225.079C173.445 217.656 147.431 204.857 113.512 196.49C79.5917 188.123 50.61 187.358 48.7792 194.781C46.9483 202.204 72.9616 215.004 106.881 223.37Z" fill="#045357" fill-opacity="0.58"/>
</g>
<path d="M193.143 121.967C205.108 120.461 211.489 106.74 210.989 104.422C210.49 102.103 202.35 114.244 196.347 115.166" fill="#148484"/>
<path d="M193.138 123.554C191.204 123.56 191.001 120.633 192.943 120.393C200.829 119.107 205.031 113.91 208.094 108.436C205.878 110.762 196.6 120.159 194.776 115.406C194.744 115.2 194.754 114.99 194.803 114.788C194.853 114.586 194.941 114.395 195.064 114.227C195.187 114.059 195.342 113.917 195.52 113.809C195.698 113.701 195.895 113.63 196.101 113.598C200.793 113.35 208.105 101.713 211.218 102.615C214.621 104.11 210.98 110.027 208.764 113.423C206.41 116.781 201.039 122.713 193.138 123.554Z" fill="black"/>
<path d="M209.545 108.39C217.804 98.6097 234.57 105.494 240.211 115.231C228.427 106.665 217.026 121.157 209.545 108.39Z" fill="white"/>
<path d="M214.459 111.613C221.158 114.887 226.564 108.605 235.219 111.54C232.676 110.523 230.225 109.578 227.994 109.766C224.522 110.059 217.467 112.131 218.227 108.48C215.554 107.811 216.027 106.449 217.929 105.643C214.563 106.293 212.468 107.626 211.35 108.618C212.239 109.966 213.262 110.955 214.459 111.613Z" fill="#055256"/>
<path d="M240.211 116.817C238.736 116.701 235.424 113.354 228.259 113.826C227.616 113.882 226.672 114.135 225.58 114.427C220.849 115.696 212.932 117.818 208.161 109.157C208.005 108.874 207.939 108.549 207.972 108.227C208.006 107.904 208.137 107.6 208.348 107.355C223.205 91.345 247.758 116.042 240.211 116.817ZM211.554 108.648C215.392 114.781 222.2 111.761 227.982 110.664C230.436 110.45 232.713 110.744 234.659 111.227C229.036 105.364 217.769 102.502 211.554 108.649V108.648Z" fill="black"/>
<path d="M208.522 105.745C217.482 94.9749 213.118 86.5458 218.17 75.2734C211.619 75.7699 197.196 96.5936 208.522 105.745Z" fill="white"/>
<path d="M208.35 103.603C209.633 101.762 211.972 97.8635 213.291 92.3585C213.718 90.5748 209.344 97.8627 209.254 91.5654C205.477 97.8508 208.005 84.6266 206.192 92.7004C204.89 98.5019 206.983 102.023 208.349 103.604" fill="#0A5E5E"/>
<path d="M208.521 107.332C207.044 107.068 201.227 102.746 203.254 92.0374C206.535 77.4197 217.243 73.9031 217.697 73.7603C217.998 73.6659 218.321 73.6639 218.623 73.7545C218.926 73.8452 219.194 74.0243 219.394 74.269C219.594 74.5137 219.717 74.8128 219.746 75.1277C219.775 75.4427 219.709 75.7592 219.558 76.0365C217.506 79.7871 217.247 83.4259 216.996 86.9449C217.436 94.0392 210.577 108.202 208.521 107.332ZM215.035 78.7355C209.574 81.5042 202.083 96.9872 208.338 103.35C209.633 101.459 211.867 97.6462 213.142 92.3261C214.147 87.8268 213.601 83.4862 215.035 78.7355Z" fill="black"/>
<path d="M233.038 110.378C229.635 108.247 225.38 107.772 221.464 108.316C218.412 108.806 215.545 110.378 212.346 110.088C211.24 109.988 210.157 109.717 209.134 109.283C207.951 108.789 208.684 106.974 209.881 107.459C214.021 109.883 218.459 107.136 222.909 107.305C226.46 107.375 230.159 108.214 233.04 110.376" fill="black"/>
<path d="M214.102 79.7832C210.693 87.3042 207.302 95.9736 209.174 104.296C209.507 105.537 207.617 106.06 207.275 104.813C205.879 95.9482 209.955 87.347 214.102 79.7832Z" fill="black"/>
<path d="M189.592 128.421C206.232 141.494 192.071 166.173 175.729 157.56C169.001 152.028 162.66 153.285 162.66 145.234C162.66 134.593 180.09 120.768 189.592 128.42" fill="#515177"/>
<path d="M181.522 160.892C178.897 160.892 176.47 160.22 174.726 158.787C172.529 156.981 170.338 155.932 168.406 155.001C147.539 146.554 176.525 115.289 190.584 127.185C204.269 137.512 199.711 160.895 181.522 160.892ZM183.104 127.792C173.844 128.036 164.346 137.956 164.244 145.234C164.062 152.313 172.111 151.766 176.735 156.337C192.919 163.243 202.819 140.773 188.602 129.661C186.885 128.277 184.961 127.792 183.103 127.792H183.104Z" fill="black"/>
<path d="M165.161 166.709C187.819 170.132 206.922 203.118 177.088 218.45C198.052 239.62 144.321 248.601 145.801 207.17C145.799 207.171 165.161 166.709 165.161 166.709Z" fill="#777882"/>
<path d="M192.329 198.494C192.157 206.98 182.084 216.9 177.088 218.451C198.169 237.797 145.568 250.644 145.798 207.171L156.919 183.933L165.162 166.706C172.721 168.063 194.559 178.248 192.329 198.491" fill="black"/>
<path d="M177.088 218.451C177.915 219.103 178.682 219.83 179.378 220.622C171.551 224.321 161.986 221.732 160.718 223.239C155.336 231.142 177.866 234.622 182.125 226.808C179.859 243.479 145.018 240.018 145.797 207.172L156.917 183.934C163.115 180.702 168.848 178.988 172.188 180.945C185.218 188.582 163.147 205.061 171.506 209.547C174.774 211.304 182.844 212.155 189.698 206.699C186.152 213.163 180.097 217.2 177.085 218.448" fill="black"/>
<path d="M168.487 237.919C153.391 238.11 144.479 224.734 144.218 207.243C143.833 206.802 164.266 165.333 164.255 164.938C187.11 167.522 209.49 200.483 179.859 218.816C189.132 228.192 180.341 238.45 168.487 237.919ZM147.398 207.496C147.449 249.118 198.015 235.212 174 218.012C201.992 206.48 192.144 175.16 166.046 168.527L147.398 207.496Z" fill="black"/>
<path d="M159.882 219.51C165.567 219.972 171.38 219.204 176.711 217.192L177.465 219.709C171.661 220.939 165.657 220.871 159.882 219.51Z" fill="black"/>
<path d="M173.989 213.711C166.579 214.925 158.782 214.638 151.613 212.264L152.702 209.624C159.286 212.775 166.72 213.953 173.993 213.711" fill="black"/>
<path d="M119.317 164.874C96.657 168.3 77.5563 201.286 107.39 216.618C86.4264 237.788 140.157 246.769 138.677 205.338C138.68 205.338 119.317 164.874 119.317 164.874Z" fill="white"/>
<path d="M115.99 236.083C104.133 236.619 95.3486 226.355 104.619 216.98C74.9507 198.605 97.4279 165.666 120.224 163.103C120.211 163.499 140.644 204.967 140.261 205.406C140.009 222.884 131.074 236.292 115.99 236.083ZM118.431 166.698C92.2769 173.361 82.5283 204.68 110.479 216.183C86.4596 233.398 137.042 247.272 137.079 205.668C137.08 205.664 118.431 166.698 118.431 166.698Z" fill="black"/>
<path d="M124.596 217.678C124.596 217.678 116.273 219.291 107.39 216.618Z" fill="#777882"/>
<path d="M124.596 217.678C118.821 219.039 112.818 219.107 107.013 217.877L107.767 215.36C113.098 217.372 118.911 218.14 124.596 217.678Z" fill="#222233"/>
<path d="M112.288 211.551C112.288 211.551 122.859 212.947 132.364 209.005Z" fill="#777882"/>
<path d="M112.288 211.551C118.972 211.773 125.81 210.69 131.864 207.791L132.866 210.218C126.273 212.403 119.103 212.666 112.287 211.551" fill="#222233"/>
<path d="M143.415 123.518C238.662 194.548 95.689 269.124 101.569 150.827C101.711 127.642 118.498 108.302 143.415 123.518Z" fill="white"/>
<path d="M159.284 206.952C133.849 223.814 92.8533 200.989 101.575 150.824C101.575 150.824 101.685 131.332 113.606 121.964C152.53 100.817 201.618 185.236 159.28 206.952" fill="#EDEDED"/>
<path d="M155.481 133.556C143.713 156.728 113.295 161.467 100.79 162.433C102.168 152.673 98.6531 136.169 113.606 121.964C131.994 111.194 147.481 125.801 155.475 133.556" fill="white"/>
<path d="M140.337 213.798C113.786 211.668 96.1955 196.502 100 150.638C100.278 148.586 103.369 148.945 103.145 151.015C91.6034 220.596 170.187 229.578 174.413 177.317C174.096 155.612 155.406 132.535 142.604 124.88C142.243 124.664 141.983 124.314 141.881 123.906C141.778 123.498 141.841 123.066 142.056 122.705C145.184 118.509 163.083 139.017 166.138 144.494C186.975 172.828 178.542 212.4 140.337 213.798Z" fill="black"/>
<path d="M108.322 152.962C108.213 156.468 109.251 160.354 109.251 160.354L112.426 160.392C112.426 160.392 118.813 183.795 113 186.915C103.819 191.842 91.9905 190.2 88.2516 178.651C84.067 167.613 92.6672 136.12 110.815 136.004" fill="#777882"/>
<path d="M113 186.916C91.393 197.775 81.3998 174.227 90.4432 155.309C92.7955 149.492 96.3524 143.802 100.918 139.07C102.839 136.662 110.812 136.005 110.812 136.005L108.321 152.96C108.214 155.321 108.809 158.706 109.249 160.354L112.425 160.393C112.425 160.393 118.811 183.796 112.999 186.916" fill="#777882"/>
<path d="M113.595 186.486C102.087 194.015 86.9653 187.199 87.1655 172.253C86.7374 160.687 92.5349 147.746 100.916 139.07C102.837 136.663 110.809 136.005 110.809 136.005L108.318 152.96C108.211 155.321 108.806 158.706 109.245 160.354L112.422 160.393C112.422 160.393 118.342 182.091 113.592 186.486" fill="black"/>
<path d="M113.595 186.486C102.088 194.02 86.9646 187.199 87.1648 172.254C88.8142 177.7 93.0946 183.287 98.1363 182.893C104.144 182.423 99.5981 177.267 104.656 169.386C107.374 165.153 113.572 181.825 113.572 181.825C113.572 181.825 113.624 184.01 113.595 186.486Z" fill="black"/>
<path d="M108.814 158.36C103.943 153.558 95.9653 154.123 90.4424 155.309C92.7954 149.492 96.3516 143.803 100.918 139.07C102.839 136.662 110.812 136.005 110.812 136.005L112.733 147.183L108.32 152.96C108.259 154.882 108.543 156.915 108.812 158.36" fill="black"/>
<path d="M108.322 152.962C108.703 155.412 109.509 157.781 110.517 160.015L109.267 159.041L113.431 159.091C114.946 165.221 120.053 184.317 113.612 188.078C106.527 192.013 96.5437 192.128 90.8047 185.749C79.5356 172.038 89.1505 149.403 99.9739 138.163L99.8948 138.255C101.996 135.999 105.164 135.616 107.995 135.045C109.305 134.985 111.822 133.908 112.133 135.889C112.149 136.062 112.13 136.237 112.077 136.403C112.024 136.569 111.939 136.723 111.827 136.856C111.714 136.989 111.576 137.098 111.421 137.177C111.267 137.256 111.097 137.303 110.924 137.316C108.11 137.696 104.135 138.007 101.942 139.893C93.0525 149.382 86.7167 163.003 88.9566 176.179C91.1584 187.944 103.073 191.168 112.685 185.543C116.224 181.101 112.482 166.236 111.163 160.742L112.412 161.708C111.581 161.699 108.861 161.661 108.077 161.67C107.777 158.773 107.768 155.81 108.323 152.964" fill="black"/>
<path d="M136.899 39.7108C123.768 32.9361 122.629 25.0701 124.24 19.3455C126.275 12.1132 130.712 3.4295 140.361 1.7743C154.109 -0.585184 166.298 8.3293 165.446 22.1975C163.309 38.0921 153.853 48.8553 136.899 39.7108Z" fill="#0C5166"/>
<path d="M151.709 13.8723C162.432 17.6372 161.849 34.6381 150.747 38.6401C142.516 41.6079 124.729 29.4282 125.454 27.0291C128.242 17.8108 136.535 24.7291 145.027 28.804C152.193 32.2422 144.745 11.4264 151.709 13.8723Z" fill="#515177"/>
<g opacity="0.3">
<path d="M122.827 26.3422C125.913 3.19782 156.097 -2.62277 165.427 19.2605C164.525 7.09751 153.112 -0.413178 140.362 1.7742C127.144 4.04248 123.707 19.4921 122.827 26.3422Z" fill="white"/>
</g>
<path d="M122.222 25.9123C122.235 14.8192 128.865 1.69336 140.889 0.283218C169.5 -2.93837 175.556 30.7788 153.148 44.3869C151.673 45.2744 150.319 43.0537 151.782 42.144C158.301 38.2348 163.067 31.5656 163.956 23.9518C166.511 7.99139 149.707 -1.59802 136.073 4.66749C128.185 8.7599 125.862 18.059 123.524 26.0884C123.342 26.8022 122.209 26.6436 122.225 25.9123" fill="black"/>
<path d="M156.047 21.7985C157.363 34.5588 141.409 39.0882 135.608 29.3743C128.149 14.7217 151.627 2.40399 156.047 21.7946" fill="white"/>
<path d="M156.159 24.2658C154.45 36.0672 141.027 37.8842 135.608 29.3742C131.73 22.8644 136.35 9.94318 148.234 12.1924C129.598 15.088 149.401 37.766 156.159 24.2658Z" fill="#EDEDED"/>
<path d="M145.436 36.2647C140.932 36.2647 136.128 33.8227 134.204 30.1039C128.752 19.3875 138.583 6.25368 151.032 11.5603C163.023 18.2914 157.268 36.4011 145.436 36.2647ZM145.867 13.49C130.964 14.172 133.528 36.4336 148.126 32.6355C149.636 32.0636 155.518 28.3813 154.486 22.0491C153.661 17.0264 150.575 13.5455 145.867 13.49Z" fill="black"/>
<path d="M59.1741 63.0645C66.4225 50.167 63.0508 42.9744 58.5623 39.0794C52.8922 34.1622 44.4178 29.3576 35.4512 33.2953C22.6775 38.9057 17.3936 53.0698 25.7207 64.1804C36.2339 76.2728 50.0389 80.048 59.1741 63.0645Z" fill="#0C5166"/>
<path d="M32.62 49.6547C25.7342 58.7103 35.5548 72.5849 47.0249 69.8066C55.5294 67.7446 63.6927 47.7679 61.7702 46.165C54.3778 40.0042 51.2522 50.3558 46.3981 58.4399C42.3022 65.2606 37.0927 43.773 32.62 49.6555" fill="#515177"/>
<g opacity="0.3">
<path d="M63.5833 44.1426C48.2975 26.5182 19.8969 38.3014 24.125 61.7193C18.1976 51.064 23.6034 38.4997 35.4518 33.2985C47.7324 27.9054 59.0877 38.9113 63.5833 44.1458" fill="white"/>
</g>
<path d="M62.8648 44.3139C56.5076 38.8994 49.4556 32.4118 40.6203 33.3461C25.7928 35.6342 17.0343 52.908 27.9282 64.8236C32.8512 70.6925 40.4921 73.6334 48.0831 73.3019C49.8014 73.2519 49.9035 75.8517 48.1742 75.9286C21.9762 76.9137 8.54249 45.4195 34.1927 32.342C43.1008 27.7619 53.3758 32.1755 59.9949 38.7281C60.6953 39.5371 64.9606 43.6081 63.6412 44.3671C63.5222 44.4419 63.3826 44.477 63.2424 44.4675C63.1022 44.4579 62.9687 44.4042 62.8608 44.3139" fill="black"/>
<path d="M33.3474 58.6612C39.2581 70.0462 55.0663 65.0314 54.5772 53.7217C52.7568 37.3743 26.3911 40.0336 33.3474 58.6612Z" fill="white"/>
<path d="M34.6123 60.7867C42.5199 69.702 54.7253 63.8148 54.5773 53.7218C54.2338 46.1468 43.2885 37.9057 34.5996 46.3356C51.7509 38.4783 47.6677 68.3339 34.6123 60.7867Z" fill="#EDEDED"/>
<path d="M44.1576 66.6882C29.1512 67.4979 24.2623 43.7112 41.3257 41.3882C49.2555 39.7647 55.8019 47.8615 56.1501 53.556C56.7358 59.7747 50.791 66.9079 44.1576 66.6882ZM43.2007 44.4377C35.7292 44.3369 31.4077 51.1291 34.7921 58.0132C40.9775 68.3362 53.1623 62.8606 53.0016 53.8891C52.8029 50.1623 48.4395 43.9824 43.2007 44.4377Z" fill="black"/>
<path d="M131.577 132.595C161.787 124.721 188.089 95.753 170.524 72.4628C170.196 71.8521 159.285 25.5705 119.506 20.1846C97.4335 18.1455 80.2181 23.3245 62.9045 37.1903C32.6455 63.6228 48.9491 108.282 49.0101 108.975C49.2198 148.774 100.272 145.052 131.577 132.595Z" fill="white"/>
<path d="M59.1726 132.561C75.4818 146.926 109.228 141.126 131.321 132.683C150.535 126.947 169.059 114.166 174.425 99.467C152.884 126.334 91.7989 144.802 59.1726 132.561Z" fill="#0C5166"/>
<path d="M131.577 132.595C142.53 127.44 153.668 122.256 162.574 113.906C175.195 102.282 178.659 87.91 169.127 73.006L169.206 73.1789C157.967 34.872 130.41 12.2146 89.8804 24.2634C49.3622 36.3749 38.5728 70.6909 50.3492 108.858L50.3239 108.69C51.1154 143.315 89.2361 142.302 114.551 137.711C97.655 144.945 72.9981 145.625 58.0946 133.563C51.1533 127.519 47.6645 118.169 47.6598 109.091C47.659 109.149 47.6706 109.206 47.6938 109.26L47.6685 109.091C35.6784 69.7202 47.2767 34.2217 89.0628 21.532C130.748 8.91452 160.33 32.1239 171.896 71.8346C171.886 71.8027 171.868 71.7737 171.844 71.7497L171.923 71.9226C171.909 71.8542 171.883 71.789 171.844 71.7307C177.872 80.8609 179.583 93.2309 174.401 103.138C166.114 118.444 148.508 129.68 131.583 132.601" fill="black"/>
<path d="M66.8182 36.7827C67.5306 31.3737 56.7665 34.6675 56.5591 29.9469C56.4071 26.5144 67.8685 17.3453 79.6402 23.8844C69.4008 -6.22654 87.5415 19.3011 121.846 20.6089L96.6031 49.8197L66.8182 36.7827Z" fill="white"/>
<g opacity="0.4">
<path d="M58.5363 32.323C60.8814 28.3512 70.877 22.1713 81.1053 27.8563C81.167 26.4398 76.1047 14.59 79.1345 13.601C82.3542 11.6762 90.0632 17.4373 103.734 21.2814C107.612 22.368 113.944 23.5291 118.793 24.1469L121.846 20.6089C87.5368 19.2987 69.4033 -6.22735 79.6402 23.8844C68.0277 16.7512 51.0236 28.4408 58.5371 32.323" fill="white"/>
</g>
<path d="M66.1678 36.6969C66.1678 35.19 64.7431 34.8196 63.4981 34.6119C61.8194 34.3232 60.1319 34.2431 58.397 33.695C47.4746 29.4971 66.7075 14.1284 80.2758 22.7359L78.3526 24.1302C77.6814 20.2916 75.7755 16.8812 75.3964 12.953C74.8376 5.83489 81.5826 7.90965 85.7212 9.74965C94.9514 13.846 104.441 17.1541 114.482 18.4452C116.936 18.814 119.451 19.1662 121.906 19.2994C122.08 19.3045 122.251 19.3443 122.41 19.4165C122.568 19.4886 122.711 19.5916 122.829 19.7195C122.948 19.8475 123.039 19.9977 123.099 20.1615C123.159 20.3253 123.186 20.4994 123.177 20.6737C123.169 20.8479 123.127 21.0188 123.052 21.1764C122.978 21.334 122.872 21.4751 122.743 21.5916C122.613 21.708 122.462 21.7974 122.297 21.8546C122.133 21.9118 121.959 21.9356 121.785 21.9246C119.173 21.781 116.651 21.4273 114.085 21.0426C103.886 19.7316 94.0816 16.3395 84.7327 12.1829C83.1022 11.6206 79.6925 9.88289 78.2425 10.8544C77.4471 12.926 78.6818 15.851 79.3411 17.9448C79.9942 19.8061 80.5246 21.7083 80.9288 23.6393C81.1797 24.7044 79.9221 25.5966 79.0039 25.0335C76.229 23.5711 73.1193 22.8462 69.9985 23.0746C65.8037 23.3625 59.6824 25.806 57.9459 29.8532C57.8129 32.0216 64.952 31.4394 66.7313 33.7275C67.5544 34.4953 67.8093 35.8594 67.4681 36.8674C67.279 37.5892 66.1646 37.4305 66.1678 36.6969Z" fill="black"/>
<path d="M137.029 95.9879C133.34 95.7991 124.898 94.1463 120.776 82.8104C112.2 58.3408 141.75 57.3582 156.013 67.7335C178.641 88.2115 151.596 96.3923 137.029 95.9879Z" fill="#0C5166"/>
<path d="M89.8976 110.15C92.8744 107.958 99.0155 101.923 96.2295 90.1855C89.9578 65.0227 64.7468 80.4937 58.5314 97.0236C50.8809 126.599 77.9558 118.517 89.8976 110.149" fill="#0C5166"/>
<path d="M72.9514 99.4218C77.1067 112.492 96.6079 106.631 92.8967 93.4283C88.7414 80.358 69.241 86.2198 72.9514 99.4218Z" fill="black"/>
<path d="M88.8895 92.6346C90.9141 97.965 84.629 100.804 82.3796 95.3882C80.3558 90.057 86.6409 87.2193 88.8895 92.6346Z" fill="white"/>
<g opacity="0.35">
<path d="M82.264 99.4863C85.5091 102.169 82.5062 106.295 79.0863 103.638C75.8412 100.954 78.8488 96.8294 82.264 99.4863Z" fill="white"/>
</g>
<path d="M145.839 78.4443C148.546 91.8914 128.659 96.263 125.498 82.9174C122.793 69.4711 142.68 65.1003 145.839 78.4443Z" fill="black"/>
<path d="M128.618 80.2717C129.434 85.917 136.304 85.3404 135.644 79.5087C134.827 73.8642 127.956 74.4408 128.618 80.2717Z" fill="white"/>
<g opacity="0.35">
<path d="M137.735 83.0348C136.202 86.9591 140.822 89.1036 142.526 85.1159C144.059 81.1916 139.439 79.0479 137.735 83.0348Z" fill="white"/>
</g>
<path d="M132.144 46.7329C132.256 45.659 123.255 38.4846 117.977 44.0363C116.386 45.7082 116.99 49.2081 119.971 49.8505C125.682 51.0822 132.035 47.8075 132.148 46.7329" fill="#0C5166"/>
<path d="M67.1444 66.2631C66.4613 65.4279 70.038 54.4744 77.4961 56.1978C79.7431 56.7173 81.1598 59.973 79.0236 62.154C74.9317 66.3297 67.8282 67.0982 67.1444 66.2631Z" fill="#0C5166"/>
<path d="M112.198 100.86L112.344 100.84L112.331 100.796L112.198 100.86Z" fill="#512717"/>
<path d="M112.055 100.879L112.068 100.923L112.198 100.86L112.055 100.879Z" fill="#512717"/>
<path d="M100.126 101.52C101.031 102.171 102.943 104.808 105.654 105.388C108.795 106.059 111.346 103.931 112.18 101.75C112.823 100.005 112.016 98.3782 111.601 96.8452C112.101 98.3584 112.313 100.152 113.81 101.26C115.705 102.621 119.003 102.992 121.257 100.7C123.202 98.7208 123.351 95.4652 123.749 94.4214C115.472 85.5046 102.113 89.5732 100.126 101.52Z" fill="white"/>
<g opacity="0.2">
<path d="M109.235 96.922C111.716 104.239 104.479 103.949 101.558 100.65C101.558 100.65 107.222 101.467 106.323 97.3875C106.505 94.6775 109.238 96.9236 109.238 96.9236" fill="#000072"/>
</g>
<g opacity="0.2">
<path d="M113.61 95.6078C115.557 103.086 121.441 98.8524 122.07 94.484C122.07 94.484 117.79 98.2909 116.3 94.3864C114.659 92.2244 113.609 95.6078 113.609 95.6078" fill="#000072"/>
</g>
<path d="M100.126 101.52C102.184 102.471 104.069 104.323 106.41 104.364C108.895 104.49 111.568 102.155 110.945 99.5353C110.778 98.8945 110.441 97.8936 110.256 97.2488L112.947 96.4414C113.151 97.087 113.414 98.099 113.626 98.7303C114.54 101.268 118.058 101.744 120.071 100.267C122.011 98.9476 122.568 96.3581 123.752 94.4214C123.888 97.0902 123.672 100.136 121.471 102.01C118.244 104.922 112.144 103.7 110.899 99.3426C110.73 98.7977 110.429 97.8024 110.258 97.2488C110.15 96.8922 110.186 96.5068 110.361 96.1774C110.536 95.848 110.833 95.6015 111.189 95.4921C112.706 95.1201 113.005 96.5168 113.3 97.6414C113.597 98.5709 113.854 99.5591 113.785 100.534C113.595 104.449 109.22 107.498 105.467 106.463C102.947 105.82 101.37 103.625 100.128 101.52" fill="#0C5166"/>
<path d="M103.832 95.0907C106.17 98.2742 112.217 98.6478 112.217 98.6478C128.414 83.5876 101.037 90.2671 103.832 95.0907Z" fill="#0C5166"/>
<g opacity="0.5">
<path d="M107.156 92.1325C108.416 93.0644 112.182 91.9366 112.726 90.459C112.817 89.3352 106.466 91.2403 107.156 92.1325Z" fill="white"/>
</g>
<path d="M112.698 234.668C125.67 240.894 139.403 239.222 143.369 230.927C143.369 230.927 145.282 224.598 147.573 219.641C150.44 213.439 154.581 207.473 156.555 203.345C160.52 195.05 153.214 183.279 140.242 177.052C127.271 170.824 113.537 172.497 109.572 180.792C107.598 184.916 105.553 191.895 102.527 198.019C100.109 202.914 96.3856 208.375 96.3856 208.375C92.4203 216.669 99.7264 228.44 112.698 234.668Z" fill="#0A5E5E"/>
<path d="M147.659 210.645C148.818 208.662 138.921 211.847 129.337 204.691C124.556 201.122 126.749 213.944 124.093 218.384C120.492 224.4 111.602 229.126 115.727 231.8C119.851 234.475 136.459 236.705 139.35 229.469C142.096 222.592 143.457 217.828 147.66 210.645" fill="#055256"/>
<path d="M128.203 240.015C122.997 240.015 117.368 238.666 112.014 236.094C101.213 231.097 89.9816 218.99 94.9576 207.685C97.0155 205.464 103.998 192.074 105.438 186.826C111.747 155.374 167.419 178.839 157.956 204.084C155.356 209.273 151.54 214.729 148.943 220.451C146.587 225.573 144.97 231.317 144.73 231.746C142.368 237.116 134.97 240.203 128.203 240.015ZM113.382 233.233C122.536 237.693 136.7 239.419 141.891 230.341C142.177 229.405 143.973 223.649 146.137 218.97C148.707 213.319 152.565 207.759 155.127 202.655C163.113 182.978 113.787 159.632 108.375 188.013C106.775 193.551 100.257 206.186 97.7634 209.16C94.2975 216.647 101.274 227.419 113.382 233.233Z" fill="black"/>
<path d="M129.12 200.313C163.294 214.684 155.516 200.544 166.478 177.233C172.219 162.529 184.46 144.962 187.34 138.939C187.656 129.949 186.684 113.206 173.777 106.893C160.779 100.771 147.148 110.503 140.356 116.386C137.477 122.409 131.491 142.977 123.652 156.676C112.399 179.845 96.5216 182.632 129.119 200.312" fill="#6FB643"/>
<path d="M129.12 200.313C163.297 214.684 155.515 200.544 166.478 177.234C172.219 162.531 184.46 144.966 187.341 138.941C189.818 106.59 164.014 94.1303 140.354 116.39C136.304 126.045 129.986 146.119 123.654 156.68C119.838 163.401 110.976 177.841 109.572 180.79C108.204 183.653 112.622 192.38 129.122 200.316" fill="#6FB643"/>
<path d="M187.341 138.94C184.464 144.968 172.224 162.53 166.478 177.232C163.075 185.946 157.979 200.362 156.556 203.338C153.066 212.553 107.438 195.417 109.571 180.785C111.029 177.746 119.755 163.538 123.653 156.675C127.61 149.763 131.093 141.102 133.942 133.443C136.741 125.924 138.928 119.372 140.353 116.391C163.933 94.1843 189.832 106.509 187.337 138.943" fill="#0A5E5E"/>
<path d="M127.423 177.063C126.092 184.817 121.716 190.02 114.318 190.45C109.939 186.115 108.772 182.456 109.569 180.787C110.677 178.408 117.873 166.61 121.837 159.806C126.852 162.768 128.75 169.294 127.419 177.063" fill="#0A5E5E"/>
<g opacity="0.5">
<path d="M136.231 160.671C141.203 150.158 145.793 150.043 144.7 145.205C144.066 142.43 139.405 141.226 137.072 134.294C136.29 131.971 131.848 150.459 126.762 156.954C124.885 159.35 132.833 167.864 136.235 160.672" fill="white"/>
</g>
<g opacity="0.5">
<path d="M98.262 214.531C99.2909 219.253 102.818 223.195 105.567 222.295C108.869 221.216 106.421 218.647 111.556 208.21C113.018 205.239 118.046 201.068 117.017 197.777C116.164 195.062 112.948 195.035 110.065 189.972C108.183 186.668 107.209 196.642 105.006 202.418C102.068 210.119 97.3122 210.173 98.262 214.531Z" fill="white"/>
</g>
<path d="M174.128 150.08C169.901 150.811 162.605 150.603 156.734 146.707C149.798 142.107 151.218 159.144 148.034 168.233C143.484 181.221 129.135 191.986 129.74 194.688C130.457 197.891 149.299 204.681 153.032 199.822C156.764 194.962 160.392 178.579 166.028 167.892C171.13 158.209 178.354 149.35 174.128 150.08Z" fill="#055256"/>
<path d="M149.145 207.478C136.422 208.867 102.853 189.755 108.146 180.1C108.993 178.329 111.911 173.43 115.29 167.759C125.901 152.135 132.676 132.108 138.93 115.703C163.632 91.7248 191.57 104.848 188.911 139.328C182.93 150.578 173.019 164.611 167.954 177.812C165.5 184.027 159.944 199.65 157.981 204.025C157.037 206.002 154.02 207.478 149.145 207.478ZM129.803 198.881C146.357 206.812 154.439 204.094 155.13 202.654C155.916 201.012 157.967 195.471 160.139 189.605C165.735 171.429 176.766 153.757 185.774 138.55C187.951 107.891 164.188 96.3891 141.649 117.374C136.805 129.228 132.122 145.151 125.028 157.47C121.76 163.24 113.235 177.139 111.001 181.476C110.311 182.912 113.264 190.925 129.803 198.881Z" fill="black"/>
<path d="M156.671 142.681C169.643 148.908 183.376 147.235 187.341 138.941C187.341 138.941 189.254 132.611 191.545 127.655C194.412 121.453 198.553 115.486 200.527 111.358C204.492 103.064 197.187 91.2927 184.214 85.0652C171.242 78.8378 157.509 80.5112 153.544 88.8055C151.571 92.9336 149.526 99.9089 146.5 106.032C144.082 110.928 140.358 116.388 140.358 116.388C136.393 124.682 143.699 136.454 156.671 142.681Z" fill="#0A5E5E"/>
<g opacity="0.5">
<path d="M141.758 122.352C142.118 126.671 146.139 129.787 147.445 129.239C149.94 128.193 148.443 122.701 152.847 117.493C154.984 114.966 159.332 113.279 158.299 109.989C157.446 107.272 154.579 107.207 152.181 100.778C150.85 97.2148 150.044 106.298 146.902 112.549C145.601 115.138 141.386 117.907 141.758 122.352Z" fill="white"/>
</g>
<path d="M192.511 120.13C185.582 128.663 185.412 137.42 183.516 138.998C178.801 142.93 164.729 142.329 157.78 136.953C152.358 132.758 164.745 131.205 165.175 120.263C165.492 112.094 172.965 126.862 192.511 120.13Z" fill="#055256"/>
<path d="M169.858 115.095C200.964 129.545 214.944 100.295 184.214 85.0652C153.108 70.6157 139.129 99.8645 169.858 115.095Z" fill="#0A5E5E"/>
<path d="M195.854 113.421C200.411 109.501 200.24 103.875 196.718 98.08C190.518 86.5801 167.123 78.1652 157.879 86.3263C153.321 90.2434 153.492 95.8744 157.014 101.664C163.215 113.164 186.61 121.579 195.854 113.419" fill="#148484"/>
<path d="M168.913 112.338C189.579 123.903 211.621 110.781 191.334 91.8755C208.247 109.924 188.316 121.623 168.913 112.338Z" fill="#055256"/>
<path d="M172.175 148.033C156.567 148.429 132.345 132.972 138.933 115.703L139.054 115.493C139.091 115.439 142.745 110.064 145.084 105.329C147.834 99.8351 149.735 93.3166 152.119 88.1186C164.398 66.9808 210.699 89.2091 201.958 112.041C199.405 117.164 195.535 122.726 192.985 128.32C190.768 133.114 188.878 139.337 188.859 139.399L188.772 139.625C186.446 145.082 179.009 148.223 172.175 148.033ZM141.736 117.177C134.035 133.792 174.708 156.427 185.864 138.358C186.149 137.423 187.946 131.667 190.109 126.989C192.678 121.337 196.538 115.776 199.1 110.673C203.045 100.918 192.759 90.8619 183.53 86.4959C167.36 79.3484 155.45 82.4622 152.346 96.0306C150.743 101.57 144.233 114.202 141.736 117.177Z" fill="black"/>
<path d="M158.675 107.036C165.606 112.319 173.302 116.124 181.634 118.632C172.806 118.909 163.667 114.349 158.675 107.036Z" fill="black"/>
<path d="M189.972 118.458C193.202 116.918 196.493 115.178 198.515 112.155C204.307 102.354 193.264 91.222 185.013 86.9527C173.536 80.301 150.657 79.9528 153.345 98.5923C149.778 93.1199 151.925 85.6766 157.609 82.5296C169.968 75.8993 186.308 82.4931 195.78 91.5012C199.332 95.0305 202.315 99.5187 202.954 104.602C204.087 112.362 197.749 119.122 189.974 118.458" fill="black"/>
<path d="M172.147 108.841C194.761 119.554 205.526 101.946 181.371 89.5462C156.589 78.4579 149.649 97.9024 172.147 108.841Z" fill="#E1ECCE"/>
<path d="M172.147 108.84C195.137 119.667 205.389 101.569 181.078 89.409C156.266 78.653 149.86 97.9563 172.147 108.84Z" fill="#148484"/>
<path d="M172.147 108.84C195.15 119.67 205.381 101.562 181.078 89.4089C197.639 105.327 171.062 115.386 158.38 92.9367C158.282 98.7025 163.763 104.667 172.147 108.84Z" fill="#0A5E5E"/>
<path d="M185.1 113.664C173.544 114.035 152.827 102.005 157.533 89.9659C164.182 75.3728 203.173 94.09 195.987 108.425C193.941 112.371 189.86 113.589 185.1 113.664ZM168.344 87.8879C152.651 88.4582 161.871 102.741 172.831 107.412C180.124 110.913 187.82 111.514 191.55 108.873C200.457 100.781 177.972 86.8458 168.344 87.8863V87.8879Z" fill="black"/>
<path d="M178.701 95.1321C172.686 92.8654 164.792 91.008 159.139 94.8807L159.693 93.726C161.241 104.761 182.142 114.807 191.709 109.095C193.113 108.069 194.668 110.25 193.221 111.241C182.069 118.331 157.678 106.577 157.013 93.1073C163.796 88.8864 172.243 91.7266 178.699 95.1321" fill="black"/>
<path d="M110.908 160.036C131.499 149.805 129.69 188.921 110.284 188.35C97.9123 188.033 103.077 165.611 110.908 160.036Z" fill="#EDEDED"/>
<path d="M125.816 168.04C125.872 175.66 121.722 188.644 110.282 188.348C106.235 188.243 104.065 185.773 103.248 182.298C116.434 189.119 125.014 170.11 122.758 160.752C124.571 162.378 125.794 164.815 125.816 168.04Z" fill="#515177"/>
<path d="M110.673 189.936C91.3407 189.064 104.831 148.536 121.555 158.02C134.153 164.85 124.834 190.736 110.673 189.936ZM116.34 159.946C114.715 159.946 113.112 160.412 111.828 161.329C106.085 165.265 99.0853 185.51 110.324 186.76C113.528 186.843 116.288 185.756 118.55 183.531C124.899 177.37 127.973 159.974 116.34 159.949V159.946Z" fill="black"/>
<path d="M114.376 164.641C119.239 164.592 125.521 166.208 126.83 171.637L124.241 172.059C123.846 167.348 118.398 165.433 114.376 164.641Z" fill="black"/>
<path d="M110.143 173.925C115.351 173.667 121.266 175.72 123.519 180.825L121.057 181.732C119.841 176.949 114.703 174.524 110.142 173.922" fill="black"/>
<path d="M190.311 129.367C176.902 119.027 164.558 152.866 177.423 156.746C190.363 160.843 199.174 136.503 190.311 129.367Z" fill="#EDEDED"/>
<path d="M177.423 156.744C174.318 155.762 172.634 152.977 172.152 149.397C182.157 159.347 194.005 141.997 191.865 131.026C197.972 139.645 189.491 160.567 177.423 156.744Z" fill="#515177"/>
<path d="M180.279 158.783C163.489 158.486 170.544 128.541 183.029 126.203C203.575 123.968 195.726 159.169 180.279 158.783ZM184.87 129.216C175.78 129.501 171.969 145.906 174.303 151.581C175.016 153.476 176.227 154.705 177.899 155.235C190.581 158.033 196.193 136.058 189.319 130.605C188.548 129.978 186.843 129.216 184.87 129.216H184.87Z" fill="black"/>
<path d="M175.518 132.133C178.842 130.565 186.547 132.107 187.785 135.834C186.157 132.846 179.272 132.652 176.766 134.445L175.518 132.133Z" fill="black"/>
<path d="M173.536 141.612C175.357 144.984 179.66 147.703 183.65 147.489C179.331 148.574 174.172 146.458 171.345 143.054L173.536 141.612Z" fill="black"/>
<path d="M93.1143 163.213C97.0139 159.802 102.216 158.522 107.311 159.018C107.878 159.043 108.557 159.131 109.112 159.048L109.389 161.665C108.772 161.681 108.105 161.544 107.511 161.413C102.522 160.086 97.56 160.433 93.1143 163.213Z" fill="black"/>
<path d="M175.033 223.001C177.645 226.276 180.721 231.369 177.53 235.299L175.697 233.421C178.585 231.026 176.409 225.822 175.033 223.001Z" fill="black"/>
<path d="M169.057 223.326C171.231 227.436 173.871 233.775 169.611 237.473L168.137 235.302C171.738 233.155 170.092 226.668 169.057 223.326Z" fill="black"/>
<defs>
<filter id="filter0_f_80_38" x="0.688232" y="141.678" width="219.017" height="136.504" filterUnits="userSpaceOnUse" color-interpolation-filters="sRGB">
<feFlood flood-opacity="0" result="BackgroundImageFix"/>
<feBlend mode="normal" in="SourceGraphic" in2="BackgroundImageFix" result="shape"/>
<feGaussianBlur stdDeviation="24" result="effect1_foregroundBlur_80_38"/>
</filter>
</defs>
</svg>
