<svg width="512" height="622" viewBox="0 0 512 622" fill="none" xmlns="http://www.w3.org/2000/svg">
<g filter="url(#filter0_f_19_305)">
<ellipse cx="225.336" cy="497.084" rx="146.344" ry="40.0493" transform="rotate(7.54594 225.336 497.084)" fill="#002635"/>
</g>
<path d="M390.786 443.489C390.72 443.489 390.654 443.485 390.588 443.476C390.331 443.441 390.088 443.337 389.884 443.176C389.681 443.014 389.524 442.801 389.432 442.559L388.174 439.263C388.088 439.036 388.06 438.791 388.093 438.55C388.126 438.309 388.22 438.08 388.364 437.885L403.591 417.471C418.305 397.749 435.25 379.788 454.091 363.945C454.374 363.707 454.738 363.586 455.107 363.608C455.477 363.629 455.824 363.791 456.078 364.06L456.909 364.939C457.04 365.078 457.142 365.242 457.21 365.421C457.277 365.6 457.308 365.79 457.302 365.981C457.295 366.172 457.25 366.36 457.17 366.534C457.09 366.707 456.976 366.863 456.835 366.992L451.989 371.445C437.215 385.025 423.764 399.974 411.818 416.09L391.948 442.907C391.813 443.088 391.638 443.234 391.436 443.335C391.234 443.436 391.011 443.489 390.786 443.489Z" fill="#055256"/>
<path d="M455.023 365.05L455.856 365.929L451.01 370.381C436.165 384.019 422.653 399.034 410.656 415.225L390.786 442.042L389.527 438.746L404.751 418.329C419.396 398.694 436.265 380.814 455.023 365.045M455.023 362.155C454.34 362.155 453.68 362.396 453.158 362.835C434.233 378.75 417.211 396.792 402.431 416.603L387.204 437.019C386.913 437.408 386.726 437.865 386.659 438.347C386.592 438.828 386.648 439.319 386.822 439.773L388.081 443.068C388.266 443.553 388.578 443.979 388.984 444.301C389.391 444.624 389.877 444.831 390.391 444.902C390.522 444.919 390.654 444.928 390.786 444.928C391.238 444.928 391.684 444.822 392.088 444.619C392.492 444.415 392.843 444.12 393.112 443.757L412.982 416.94C424.873 400.9 438.263 386.021 452.97 372.504L457.816 368.052C458.097 367.793 458.324 367.481 458.484 367.134C458.644 366.786 458.734 366.411 458.747 366.029C458.761 365.647 458.698 365.266 458.564 364.908C458.429 364.55 458.224 364.223 457.962 363.945L457.131 363.066C456.859 362.778 456.532 362.549 456.168 362.393C455.805 362.236 455.413 362.156 455.018 362.157L455.023 362.155Z" fill="black"/>
<path d="M248.087 410.903C236.983 392.691 204.835 387.462 201.111 416.413C197.881 441.518 228.089 453.149 249.711 446.354C257.529 443.9 261.768 433.338 248.087 410.903Z" fill="#0C5166"/>
<path d="M249.713 446.35C228.093 453.136 197.885 441.52 201.112 416.417C202.473 405.857 207.606 399.843 214.132 397.356C214.02 397.945 214.25 398.689 213.845 399.169C194.52 422.134 219.794 447.132 236.561 417.424C244.627 421.598 247.247 431.934 256.536 430.475C258.308 439.82 254.747 444.775 249.713 446.35Z" fill="#042121"/>
<path d="M236.853 451.143C226.288 451.143 215.68 447.774 208.311 441.617C200.531 435.113 196.955 426.035 198.24 416.044C199.797 403.941 206.471 395.773 216.553 393.632C228.865 391.022 243.495 397.798 250.563 409.4C258.771 422.859 261.63 433.893 258.839 441.313C258.163 443.161 257.065 444.828 255.632 446.181C254.2 447.534 252.473 448.537 250.586 449.11C246.138 450.478 241.507 451.164 236.853 451.143ZM221.959 398.856C220.547 398.851 219.138 398.995 217.756 399.285C210.008 400.93 205.254 406.98 203.984 416.781C202.671 426.993 207.633 433.514 212.028 437.186C221.232 444.875 236.372 447.512 248.844 443.596C251.06 442.902 252.597 441.448 253.423 439.277C254.655 436.027 255.263 428.213 245.624 412.404C240.649 404.268 230.876 398.856 221.959 398.856Z" fill="black"/>
<path d="M233.912 408.249C232.699 405.136 222.933 400.619 215.613 405.097C207.64 409.978 216.074 410.103 221.776 410.597C227.608 411.103 235.125 411.363 233.912 408.249Z" fill="white"/>
<path d="M315.394 449.326C307.086 468.539 309.445 497.244 306.015 518.403C303.416 534.398 297.519 546.083 281.215 546.083C273.523 546.083 245.117 547.802 239.621 539.012C237.783 536.078 236.871 532.243 238.202 528.582C239.491 525.028 242.905 521.632 249.647 519.385C248.027 509.078 247.108 498.597 246.654 488.492C246.263 479.88 246.205 471.531 246.335 463.795C246.61 447.123 247.769 433.262 248.318 425.562L315.394 449.326Z" fill="white"/>
<path d="M315.394 449.326C307.086 468.539 309.445 497.244 306.015 518.403C303.416 534.398 297.519 546.083 281.215 546.083C273.523 546.083 245.117 547.802 239.621 539.012C237.783 536.078 236.871 532.243 238.202 528.582C240.554 530.942 246.082 534.03 259.079 535.074C285.636 537.198 295.11 531.89 296.188 506.138C297.186 482.2 264.571 488.346 246.328 463.795C246.603 447.123 247.762 433.262 248.311 425.562L315.394 449.326Z" fill="black"/>
<path d="M271.401 549.087C255.696 549.087 241.598 547.637 237.166 540.541C234.606 536.442 233.988 531.733 235.472 527.622C236.585 524.535 239.403 520.415 246.439 517.498C241.225 481.992 244.011 444.45 245.215 428.221L245.427 425.353C245.447 424.969 245.544 424.594 245.712 424.249C245.88 423.904 246.115 423.595 246.403 423.341C246.692 423.087 247.028 422.894 247.392 422.771C247.756 422.648 248.142 422.599 248.525 422.627C248.909 422.654 249.283 422.758 249.626 422.931C249.969 423.105 250.274 423.345 250.523 423.637C250.772 423.929 250.96 424.268 251.076 424.634C251.193 425 251.235 425.385 251.201 425.768L250.989 428.648C249.773 445.034 246.925 483.406 252.514 518.937L252.893 521.354L250.568 522.126C245.393 523.848 242.056 526.425 240.919 529.58C239.67 533.039 241.313 536.259 242.077 537.49C246.064 543.872 269.899 543.402 277.73 543.248C279.126 543.22 280.31 543.197 281.213 543.197C301.053 543.197 303.559 524.419 305.337 493.495C306.251 477.526 307.195 461.014 312.745 448.185C313.066 447.507 313.637 446.981 314.339 446.715C315.041 446.45 315.819 446.468 316.508 446.764C317.198 447.061 317.745 447.613 318.034 448.304C318.324 448.996 318.333 449.772 318.06 450.47C312.916 462.361 312.002 478.352 311.116 493.82C309.565 520.932 307.959 548.969 281.22 548.969C280.34 548.969 279.202 548.992 277.852 549.02C275.68 549.06 273.525 549.087 271.401 549.087Z" fill="black"/>
<path d="M271.576 531.29C269.299 534.589 269.035 539.666 271.68 542.778C272.523 543.742 273.453 544.232 274.606 544.297C277.14 544.548 277.142 548.208 274.627 548.477C267.309 549.013 263.71 539.787 266.175 533.899C267.001 531.912 268.447 530.162 270.565 529.448C270.818 529.361 271.096 529.378 271.337 529.496C271.577 529.613 271.761 529.821 271.849 530.074C272.025 530.503 271.764 530.93 271.57 531.29H271.576Z" fill="black"/>
<path d="M252.895 528.582C250.824 530.803 250.146 533.716 250.639 536.771C251.019 539.367 252.32 542.497 254.775 543.38C257.318 544.134 256.49 547.863 253.881 547.479C246.858 545.997 244.624 536.853 247.071 530.926C247.775 529.378 248.959 528.097 250.449 527.272C251.246 526.842 252.923 526.066 253.305 527.429C253.43 527.884 253.189 528.274 252.895 528.582Z" fill="black"/>
<path d="M408.224 540.987C402.811 549.821 372.302 548.565 364.617 548.051C352.598 547.257 344.682 535.721 339.479 522.106C337.841 517.767 336.447 513.339 335.304 508.845C331.164 492.823 329.261 474.056 328.942 472.649L391.101 435.155C390.761 437.265 393.637 473.297 393.855 477.452C394.043 481.244 394.426 485.694 394.912 490.459C395.635 497.616 396.597 505.461 397.502 512.794C397.842 515.496 398.167 518.139 398.479 520.646C405.744 522.985 409.268 527.139 410.129 531.552C410.758 534.762 409.99 538.098 408.224 540.987Z" fill="white"/>
<path d="M408.222 540.989C402.809 549.823 372.3 548.567 364.616 548.053C352.596 547.259 344.679 535.723 339.475 522.106C337.837 517.767 336.444 513.339 335.3 508.845C331.161 492.823 329.257 474.058 328.94 472.649L329.894 472.072C330.879 479.279 332.615 490.816 335.3 501.195C336.444 505.69 337.837 510.117 339.475 514.457C344.679 528.074 352.596 539.609 364.616 540.404C372.293 540.917 402.809 542.174 408.222 533.34C408.853 532.313 409.358 531.214 409.726 530.067C409.891 530.551 410.022 531.046 410.117 531.549C410.754 534.762 409.986 538.1 408.222 540.989Z" fill="black"/>
<path d="M393.961 435.619C393.522 442.459 394.339 449.493 394.757 456.36C396.296 476.913 398.999 499.685 401.249 520.296L399.331 517.976C406.857 520.176 413.982 526.421 413.128 535.092C412.723 539.219 410.886 543.513 407.357 545.802C404.082 547.958 400.576 548.869 396.922 549.649C389.999 550.992 383.159 551.289 376.343 551.345C369.266 551.127 361.647 551.961 355.197 548.275C335.133 537.149 327.454 494.279 327.528 472.958C327.324 471.148 329.817 470.562 330.358 472.341C330.745 473.724 331.205 475.964 331.518 477.387C335.709 496.261 340.675 532.366 358.132 543.035C360.821 544.54 363.239 545.092 366.452 545.204C369.74 545.39 373.045 545.489 376.34 545.499C382.915 545.499 389.546 545.22 395.794 544.016C399.279 543.225 403.366 542.418 405.674 539.667C410.428 532.109 405.422 525.622 397.606 523.298L395.921 522.729C394.876 515.035 394.015 507.322 393.163 499.62C391.895 487.039 390.09 469.249 389.072 456.807C388.615 449.424 387.653 442.144 388.247 434.693C388.873 430.867 394.549 431.684 393.961 435.621V435.619Z" fill="black"/>
<path d="M375.901 530.698C382.265 533.222 382.393 542.432 378.232 547.078C376.725 548.835 374.202 550.001 371.844 549.727C371.327 549.652 370.857 549.389 370.523 548.988C370.189 548.587 370.015 548.077 370.036 547.556C370.057 547.035 370.27 546.541 370.634 546.167C370.998 545.794 371.488 545.569 372.01 545.534C374.475 545.329 375.947 542.84 376.479 540.488C377.097 537.783 376.415 534.828 374.894 532.54L374.674 532.109C374.241 531.336 375.084 530.385 375.906 530.703L375.901 530.698Z" fill="#3A3A3A"/>
<path d="M394.429 528.638C401.432 530.608 401.592 540.072 398.303 545.352C397.19 547.637 391.367 551.894 390.162 547.73C390.077 547.215 390.186 546.688 390.467 546.249C390.749 545.809 391.184 545.49 391.687 545.352C394.153 544.473 395.443 541.341 395.825 538.743C396.317 535.69 395.639 532.777 393.568 530.554C392.688 529.789 393.244 528.409 394.42 528.638H394.429Z" fill="#3A3A3A"/>
<path d="M390.608 443.59C388.444 447.925 385.684 451.936 382.409 455.509C381.001 457.04 379.398 458.643 377.604 460.276C365.158 471.587 343.564 484.098 315.233 483.126C284.631 482.071 250.51 473.578 241.111 445.35C240.857 444.598 240.626 443.847 240.406 443.088C237.809 434.247 237.216 425.326 237.751 416.318C238.455 404.466 241.116 392.452 243.771 380.286C246.79 366.446 249.794 352.397 249.887 338.101L319.336 297.659L347.965 280.98C370.729 316.756 413.989 397.036 390.608 443.59Z" fill="white"/>
<path d="M377.428 460.803C364.982 472.114 343.388 484.625 315.057 483.653C284.455 482.599 250.334 474.106 240.935 445.877C240.681 445.125 240.45 444.374 240.23 443.615C237.633 434.774 237.04 425.854 237.575 416.846C238.675 422.532 245.675 449.113 280.227 451.085C320.324 453.381 319 403.122 313.045 393.175C307.522 383.959 258.054 412.509 243.595 380.81C246.613 366.97 249.618 352.92 249.711 338.625L319.16 298.186L363.194 400.659L377.428 460.803Z" fill="black"/>
<path d="M250.449 463.173C241.727 456.915 237.457 446.25 235.7 435.939C230.861 408.076 241.875 380.889 245.634 353.724C246.38 348.538 246.835 343.316 246.997 338.08C247.003 337.314 247.312 336.581 247.859 336.043C248.406 335.504 249.144 335.205 249.912 335.21C250.679 335.215 251.414 335.524 251.953 336.07C252.492 336.615 252.792 337.352 252.787 338.119C252.863 349.059 251.229 359.935 249.109 370.592C243.023 400.608 232.224 434.148 252.507 461.132C253.476 462.436 251.775 464.164 250.449 463.164V463.173Z" fill="black"/>
<path d="M350.411 279.43C378.187 322.897 427.495 415.751 382.282 460.13C368.636 473.469 350.743 482.291 331.865 485.081C319.891 486.793 307.582 486.364 295.966 482.864C295.632 482.76 295.347 482.54 295.162 482.244C294.976 481.949 294.903 481.597 294.955 481.252C295.006 480.907 295.18 480.591 295.444 480.363C295.709 480.135 296.046 480.008 296.395 480.006C307.991 479.75 319.542 481.131 330.986 479.271C350.546 476.199 369.324 466.265 382.084 451.047C391.001 440.052 394.137 425.63 394.068 411.674C392.941 366.73 368.451 320.451 345.521 282.527C343.619 279.419 348.162 276.213 350.407 279.43H350.411Z" fill="black"/>
<path d="M311.666 121.47C286.424 115.777 281.046 102.985 281.271 92.6054C281.553 79.4931 285.277 62.8742 300.917 55.8487C323.207 45.8299 347.79 55.5587 352.42 79.3683C355.188 93.595 351.122 104.802 345.975 112.724C340.194 121.632 330.373 125.689 311.666 121.47Z" fill="#0C5166"/>
<path d="M281.94 105.046C281.674 90.9286 284.774 71.1581 302.534 63.1835C321.113 54.8398 341.212 59.5855 351.103 74.4169C344.235 54.2545 321.592 46.5646 300.917 55.8487C279.496 65.4738 280.431 93.087 281.94 105.046Z" fill="white"/>
<path d="M280.421 104.621C276.371 91.4383 278.73 73.7542 287.265 62.6667C291.921 56.601 298.861 52.6954 306.161 50.6776C324.666 45.183 345.839 52.8694 353.112 71.5501C357.139 81.9591 357.195 93.7198 353.43 104.185C350.925 111.16 346.769 117.408 341.701 122.667C341.165 123.2 340.44 123.503 339.683 123.509C338.926 123.516 338.197 123.226 337.651 122.702C337.106 122.178 336.787 121.462 336.765 120.706C336.742 119.951 337.017 119.217 337.53 118.661C344.397 111.595 349.132 102.57 350.182 92.7847C351.865 75.9935 344.247 60.0671 326.919 55.8733C317.67 53.6322 307.232 55.5358 299.056 60.3044C290.72 65.4017 286.48 74.5206 284.932 84.1351C283.916 90.6737 283.831 97.3564 283.294 104.273C283.198 105.855 280.887 106.129 280.421 104.614V104.621Z" fill="black"/>
<path d="M191.926 159.012C191.926 159.012 163.87 125.761 137.249 140.263C115.79 151.936 108.701 177.364 124.912 195.43C145.768 218.67 174.569 208.261 174.569 208.261" fill="#0C5166"/>
<path d="M122.931 193.032C115.067 175.649 123.283 155.332 142.036 145.123C157.52 136.686 173.47 143.78 184.525 151.679C174.431 142.833 155.5 130.317 137.247 140.254C116.724 151.426 109.344 175.181 122.931 193.032Z" fill="white"/>
<path d="M159.304 213.467C149.027 213.467 134.628 210.588 122.757 197.356C115.012 188.728 111.781 177.985 113.665 167.11C115.759 154.982 123.852 144.26 135.868 137.718C158.039 125.645 180.808 143.954 189.568 152.377C190.114 152.91 190.428 153.638 190.439 154.4C190.451 155.163 190.16 155.899 189.63 156.449C189.099 156.998 188.373 157.316 187.609 157.333C186.845 157.35 186.106 157.065 185.551 156.539C177.71 148.994 157.442 132.551 138.634 142.791C128.178 148.482 121.154 157.705 119.363 168.091C117.793 177.19 120.529 186.214 127.069 193.502C139.414 207.259 154.646 208.618 165.254 207.33C165.631 207.283 166.014 207.312 166.38 207.413C166.747 207.515 167.089 207.687 167.389 207.921C167.688 208.155 167.939 208.445 168.126 208.776C168.313 209.106 168.433 209.47 168.48 209.847C168.526 210.223 168.497 210.605 168.396 210.971C168.294 211.337 168.121 211.679 167.887 211.978C167.653 212.277 167.362 212.527 167.031 212.714C166.7 212.901 166.335 213.02 165.958 213.067C163.75 213.334 161.528 213.468 159.304 213.467Z" fill="black"/>
<path d="M411.606 258.566C405.158 272.132 394.413 283.305 382.376 292.458C380.132 294.163 377.851 295.797 375.531 297.362C363.779 305.322 351.375 311.527 340.875 316.28C287.697 340.36 202.016 346.055 175.958 310.616C172.99 306.627 170.55 302.272 168.7 297.659C163.627 284.859 164.474 272.817 162.008 259.165C157.312 233.248 146.349 201.747 162.29 169.214C162.29 169.214 167.203 155.75 178.384 144.301C167.703 142.04 160.894 132.7 161.189 127.427C162.08 111.666 201.142 123.657 212.607 115.408C198.858 108.704 191.144 85.3233 207.39 84.4919C229.822 91.709 245.923 91.1307 260.149 91.9902C273.986 93.0079 278.089 93.138 282.025 92.9727C360.064 105.05 385.528 148.252 406.854 189.772C421.168 217.645 420.298 240.276 411.606 258.566Z" fill="white"/>
<path d="M411.606 258.566C405.158 272.132 394.413 283.305 382.376 292.458C380.132 294.163 377.851 295.797 375.531 297.362C372.506 269.163 368.901 234.419 368.901 234.419C368.901 234.419 385.883 268.144 411.606 258.566Z" fill="#E8E8E8"/>
<path d="M382.376 292.458C368.736 302.828 353.437 310.588 340.875 316.28C287.697 340.36 202.016 346.055 175.958 310.616C172.99 306.627 170.55 302.272 168.7 297.659C168.7 297.659 204.294 334.219 281.748 311.747C304.959 305.011 322.317 285.682 326.744 261.964L335.02 217.589L382.376 292.458Z" fill="#0C5166"/>
<path d="M248.216 338.657C212.597 338.657 186.106 329.308 173.621 312.328C163.399 298.429 162.176 286.236 160.894 273.327C160.453 268.915 159.997 264.363 159.15 259.677C158.418 255.625 157.537 251.476 156.606 247.081C151.559 223.284 145.84 196.318 159.624 168.075C160.175 166.614 164.359 155.995 173.183 145.691C164.137 141.912 157.942 133.454 158.291 127.256C158.958 115.381 174.563 115.577 188.33 115.747C194.919 115.828 201.67 115.923 206.439 114.845C198.941 108.762 194.055 98.4989 195.639 90.7352C196.761 85.253 200.989 81.9257 207.24 81.6076C207.591 81.5899 207.941 81.6358 208.276 81.7429C226.583 87.6329 240.59 88.2358 252.951 88.7508C255.506 88.8598 257.92 88.9617 260.331 89.1023C274.418 90.1358 278.228 90.2378 281.91 90.0831C282.099 90.0751 282.289 90.0857 282.476 90.1148C318.23 95.6462 346.103 108.108 367.685 128.213C386.808 146.028 398.796 167.739 409.435 188.452C421.344 211.634 423.913 233.315 417.072 252.89C408.116 278.519 383.582 300.114 342.069 318.909C314.776 331.267 279.697 338.648 248.246 338.651L248.216 338.657ZM183.792 121.493C172.237 121.493 164.371 122.337 164.07 127.58C163.866 131.225 169.51 139.472 178.973 141.466C179.479 141.572 179.948 141.813 180.33 142.163C180.712 142.512 180.992 142.958 181.143 143.452C181.293 143.947 181.308 144.473 181.185 144.975C181.062 145.478 180.807 145.938 180.445 146.308C169.865 157.144 165.048 170.068 165 170.198C164.965 170.293 164.925 170.386 164.88 170.476C151.894 196.977 157.404 222.955 162.264 245.881C163.206 250.319 164.093 254.509 164.842 258.645C165.722 263.549 166.197 268.226 166.648 272.751C167.909 285.376 168.999 296.279 178.282 308.906C202.458 341.775 284.888 338.451 339.669 313.652C379.664 295.548 403.191 275.05 411.598 250.992C417.896 232.967 415.433 212.815 404.274 191.094C381.02 145.811 355.753 107.395 281.863 95.8729C278.035 96.0206 273.939 95.8993 259.94 94.8728C257.619 94.7322 255.231 94.632 252.701 94.5213C240.095 93.994 225.823 93.3805 207.038 87.4097C203.747 87.7015 201.873 89.1674 201.318 91.8865C200.086 97.947 205.631 108.785 213.877 112.803C214.327 113.022 214.712 113.354 214.995 113.766C215.278 114.178 215.449 114.656 215.492 115.154C215.535 115.652 215.448 116.152 215.239 116.607C215.03 117.061 214.707 117.453 214.301 117.746C208.688 121.788 198.767 121.662 188.263 121.528C186.722 121.505 185.227 121.493 183.792 121.493Z" fill="black"/>
<path d="M306.251 247.087C306.251 247.087 276.471 254.958 268.183 220.307C259.894 185.655 266.527 180.455 283.513 174.362C300.498 168.27 332.427 173.078 345.797 180.85C359.167 188.622 368.789 208.363 367.767 217.663C366.931 225.29 357.253 233.681 340.396 239.377C323.539 245.074 313.189 246.32 306.251 247.087Z" fill="#0C5166"/>
<path d="M223.454 272.415C223.454 272.415 242.761 262.173 230.172 234.134C217.584 206.096 211.604 206.011 199.815 210.769C188.025 215.527 173.78 235.553 170.624 247.878C167.469 260.202 172.095 278.75 177.159 284.573C181.311 289.348 190.429 290.009 201.963 285.06C213.497 280.11 219.477 275.529 223.454 272.415Z" fill="#0C5166"/>
<path d="M320.644 133.533C320.858 130.819 298.41 114.093 284.636 127.675C279.589 132.649 283.425 137.398 287.785 137.215C291.935 137.04 296.983 134.199 302.16 133.7C312.256 132.737 320.433 136.245 320.644 133.533Z" fill="#05303A"/>
<path d="M174.389 201.16C172.484 199.956 172.507 176.827 188.342 174.443C194.153 173.564 195.395 178.46 193.114 181.252C190.943 183.912 186.555 185.84 183.66 189.018C178.017 195.219 176.294 202.364 174.389 201.16Z" fill="#05303A"/>
<path d="M277.262 250.47C282.041 257.661 277.485 264.31 270.012 266.321C262.565 268.325 257.04 262.248 255.717 259.967C255.717 259.967 260.151 273.984 249.049 273.747C247.72 273.707 246.412 273.404 245.2 272.856C243.989 272.308 242.899 271.525 241.993 270.554C241.087 269.582 240.382 268.441 239.921 267.196C239.459 265.951 239.25 264.628 239.304 263.301C239.304 263.301 228.901 252.404 249.14 244.007C269.38 235.611 277.262 250.47 277.262 250.47Z" fill="white"/>
<path d="M278.456 252.69C281.058 258.99 276.71 264.523 270.003 266.323C262.56 268.323 257.027 262.247 255.708 259.967C255.708 259.967 260.146 273.983 249.038 273.744C245.178 273.663 241.098 271.077 239.757 266.727C240.838 267.06 241.96 267.244 243.092 267.275C257.179 267.572 251.558 249.783 251.558 249.783C253.234 252.671 260.248 260.385 269.704 257.847C273.307 256.88 276.371 255.063 278.456 252.69Z" fill="#0C5166"/>
<path d="M278.165 249.869C285.293 258.471 277.255 268.46 267.508 269.003C261.863 269.246 256.64 265.799 253.838 261.051L257.723 259.137C258.378 260.653 258.802 262.259 258.98 263.901C260.512 274.478 248.1 280.201 240.827 272.513C238.441 270.037 237.381 266.361 238.219 263.24C238.284 263.001 238.427 262.79 238.625 262.641C238.824 262.492 239.066 262.414 239.315 262.419C239.563 262.423 239.802 262.511 239.995 262.667C240.188 262.823 240.323 263.039 240.378 263.28C241.329 268.808 247.376 274.072 252.409 269.973C254.543 268.2 254.647 265.12 254.134 262.503C254.007 261.838 253.839 261.182 253.631 260.538C253.467 260.025 253.502 259.47 253.728 258.982C253.954 258.493 254.354 258.107 254.851 257.898C255.347 257.689 255.904 257.673 256.412 257.853C256.92 258.033 257.342 258.395 257.596 258.87C258.36 259.94 259.269 260.899 260.297 261.719C262.324 263.354 264.763 264.467 267.341 264.421C271.1 264.263 275.358 262.11 276.931 258.74C278.014 256.51 277.714 253.678 276.35 251.075C275.746 249.929 277.343 248.883 278.158 249.876L278.165 249.869Z" fill="black"/>
<path d="M251.063 244.679C251.829 248.556 253.687 252.168 255.605 255.61C256.256 256.752 256.95 257.916 257.645 258.972C257.825 259.21 257.954 259.482 258.024 259.771C258.094 260.061 258.104 260.361 258.054 260.655C258.003 260.948 257.893 261.228 257.729 261.477C257.566 261.726 257.353 261.94 257.104 262.103C256.855 262.267 256.575 262.379 256.282 262.431C255.988 262.482 255.687 262.473 255.396 262.404C255.106 262.336 254.833 262.208 254.594 262.03C254.356 261.851 254.156 261.626 254.007 261.368C253.303 259.948 252.912 258.438 252.414 256.988C251.199 253.01 250.093 248.937 250.16 244.73C250.172 244.183 250.995 244.13 251.07 244.675L251.063 244.679Z" fill="black"/>
<path d="M263.838 237.305C267.36 245.455 254.465 255.131 254.465 255.131C254.465 255.131 240.061 255.835 237.399 248.291C235.883 243.993 247.554 239.135 247.554 239.135C247.554 239.135 262.03 233.122 263.838 237.305Z" fill="black"/>
<path d="M255.309 239.884C256.221 241.993 253.041 244.434 250.398 245.531C247.754 246.628 243.756 247.171 242.843 245.06C242.375 243.977 248.609 241.388 248.609 241.388C248.609 241.388 254.84 238.801 255.309 239.884Z" fill="white"/>
<path d="M311.387 229.463C320.916 224.013 323.512 210.66 317.186 199.638C310.859 188.615 298.006 184.098 288.476 189.548C278.947 194.998 276.351 208.351 282.677 219.373C289.004 230.395 301.857 234.913 311.387 229.463Z" fill="black"/>
<path d="M307.012 211.943C310.315 210.686 311.642 206.132 309.976 201.772C308.31 197.412 304.281 194.897 300.979 196.155C297.676 197.412 296.349 201.966 298.015 206.326C299.681 210.686 303.709 213.201 307.012 211.943Z" fill="white"/>
<g opacity="0.35">
<path d="M303.474 225.924C304.954 224.448 304.142 221.244 301.663 218.769C299.183 216.294 295.974 215.484 294.495 216.961C293.015 218.437 293.826 221.641 296.306 224.116C298.786 226.591 301.995 227.401 303.474 225.924Z" fill="white"/>
</g>
<path d="M216.771 265.592C225.886 260.379 228.37 247.607 222.319 237.065C216.268 226.523 203.974 222.203 194.859 227.416C185.744 232.628 183.26 245.4 189.311 255.942C195.362 266.485 207.656 270.805 216.771 265.592Z" fill="black"/>
<path d="M212.591 248.837C215.75 247.634 217.019 243.278 215.426 239.107C213.832 234.937 209.979 232.531 206.819 233.734C203.66 234.937 202.391 239.293 203.985 243.464C205.578 247.634 209.431 250.04 212.591 248.837Z" fill="white"/>
<g opacity="0.35">
<path d="M209.205 262.208C210.62 260.795 209.845 257.731 207.473 255.363C205.101 252.996 202.032 252.222 200.616 253.635C199.201 255.047 199.977 258.112 202.348 260.479C204.72 262.847 207.79 263.621 209.205 262.208Z" fill="white"/>
</g>
<path d="M397.745 548.531C397.745 548.531 388.136 552.794 363.76 552.794C339.384 552.794 329.784 548.531 329.784 548.531V15.7137C329.784 15.7137 346.88 11.9417 363.76 11.9417C380.64 11.9417 397.745 15.7137 397.745 15.7137V548.531Z" fill="#30A010"/>
<path d="M397.743 15.7137V548.53C397.743 548.53 390.171 551.889 371.453 552.639C369.072 552.741 366.522 552.792 363.768 552.792C359.926 552.792 356.445 552.683 353.319 552.502C348.898 552.258 345.17 551.86 342.08 551.412C339.931 551.101 338.093 550.762 336.545 550.437C331.87 549.447 329.792 548.53 329.792 548.53V15.7137C329.792 15.7137 332.384 15.1425 336.545 14.4429C338.165 14.1757 340.034 13.8787 342.08 13.5975C345.425 13.1281 349.266 12.6799 353.319 12.3671C356.706 12.1069 360.243 11.9417 363.768 11.9417C366.345 11.9417 368.928 12.0278 371.453 12.1808C380.289 12.739 389.074 13.9196 397.743 15.7137Z" fill="#055256"/>
<path d="M371.458 12.1825V552.639C369.078 552.741 366.528 552.792 363.774 552.792C359.932 552.792 356.45 552.683 353.325 552.502C348.903 552.258 345.175 551.86 342.085 551.412C339.937 551.101 338.098 550.762 336.551 550.437V14.4429C338.171 14.1757 340.039 13.8787 342.085 13.5975C345.431 13.1281 349.271 12.6799 353.325 12.3671C356.711 12.1069 360.249 11.9417 363.774 11.9417C366.352 11.9523 368.928 12.0296 371.458 12.1825Z" fill="#0A5E5E"/>
<path d="M353.321 12.3688V552.506C348.9 552.261 345.172 551.864 342.081 551.416V13.5975C345.431 13.1282 349.271 12.6799 353.321 12.3688Z" fill="#148484"/>
<path d="M363.768 555.682C339.07 555.682 329.032 551.356 328.616 551.171C328.105 550.945 327.67 550.575 327.365 550.107C327.06 549.639 326.898 549.093 326.897 548.535V15.7137C326.897 15.0558 327.122 14.4176 327.535 13.9047C327.948 13.3917 328.524 13.0347 329.167 12.8926C329.871 12.7362 346.776 9.05208 363.768 9.05208C380.761 9.05208 397.658 12.7432 398.37 12.8926C399.013 13.0347 399.589 13.3917 400.002 13.9047C400.415 14.4176 400.64 15.0558 400.64 15.7137V548.531C400.639 549.09 400.476 549.636 400.171 550.104C399.866 550.572 399.432 550.941 398.921 551.168C398.505 551.356 388.467 555.682 363.768 555.682ZM332.685 546.48C336.35 547.596 346.068 549.904 363.768 549.904C381.469 549.904 391.175 547.598 394.85 546.48V18.076C389.701 17.0847 376.586 14.8313 363.768 14.8313C350.951 14.8313 337.825 17.0829 332.685 18.076V546.48Z" fill="#000500"/>
<path d="M366.785 332.656C366.822 337.488 365.635 342.248 363.45 346.048C357.748 355.944 348.086 357.38 337.544 364.141C320.588 375.02 283.081 395.975 258.052 385.508C229.794 373.698 246.561 336.208 246.561 336.208C249.014 336.115 251.371 335.964 253.631 335.776C271.768 334.259 283.972 329.924 294.131 325.144C294.135 325.145 294.14 325.145 294.145 325.144L294.275 325.079C294.311 325.063 294.347 325.049 294.392 325.028C309.812 317.731 320.514 309.469 340.204 308.695C356.79 308.052 364.758 317.835 366.442 328.487C366.661 329.866 366.776 331.26 366.785 332.656Z" fill="#FDFFFF"/>
<path d="M366.438 328.48C350.041 299.81 298.489 323.114 294.393 325.021C309.813 317.724 320.516 309.462 340.206 308.688C356.792 308.045 364.767 317.826 366.438 328.48Z" fill="white"/>
<path d="M366.785 332.656C366.822 337.488 365.635 342.248 363.45 346.048C357.748 355.944 348.086 357.38 337.544 364.141C320.588 375.02 283.081 395.975 258.052 385.508C229.794 373.698 246.561 336.208 246.561 336.208C249.014 336.115 251.371 335.964 253.631 335.776C252.681 339.502 249.151 355.669 256.996 363.758C270.193 377.368 298.915 374.594 318.077 361.844C334.446 350.945 363.7 349.73 366.785 332.656Z" fill="black"/>
<path d="M273.488 391.243C267.665 391.243 262.072 390.322 256.936 388.176C249.248 384.961 243.905 379.704 241.068 372.547C234.594 356.234 243.534 335.892 243.918 335.034L244.65 333.396L246.446 333.324C274.691 332.208 289.56 324.446 302.678 317.6C313.684 311.854 324.08 306.428 340.095 305.802C351.578 305.357 360.664 309.669 365.684 317.953C370.902 326.566 371.013 338.706 365.956 347.482C361.638 354.979 355.285 358.113 348.558 361.431C345.501 362.939 342.34 364.498 339.111 366.571C323.353 376.681 296.621 391.243 273.488 391.243ZM248.549 339.014C246.694 343.9 241.831 358.812 246.457 370.437C248.702 376.083 252.972 380.258 259.17 382.845C283.139 392.864 320.87 371.402 335.978 361.71C339.482 359.464 342.791 357.831 345.992 356.253C352.418 353.089 357.495 350.579 360.935 344.603C364.925 337.676 364.841 327.729 360.729 320.945C356.792 314.441 349.725 311.209 340.321 311.576C325.605 312.151 316.223 317.05 305.358 322.72C291.993 329.696 276.883 337.585 248.549 339.014Z" fill="black"/>
<path d="M425.183 363.909C424.495 368.302 423.092 372.552 421.031 376.493C408.322 401.081 358.993 396.003 364.064 360.45C364.458 357.684 365.38 355.019 366.778 352.599C373.603 340.629 390.478 335.307 397.338 331.506C397.997 321.041 397.743 307.728 397.743 307.728C397.743 307.728 429.895 333.637 425.183 363.909Z" fill="white"/>
<path d="M425.183 363.909C424.495 368.302 423.092 372.552 421.031 376.493C408.322 401.081 358.993 396.003 364.064 360.45C364.458 357.684 365.38 355.019 366.778 352.599C367.669 358.875 370.946 370.894 382.938 377.649C396.354 385.213 416.905 381.282 425.183 363.909Z" fill="black"/>
<path d="M393.013 394.6C389.041 394.615 385.089 394.019 381.298 392.834C369.84 389.187 358.542 378.658 361.198 360.048C363.487 343.972 380.441 336.219 390.566 331.586C392.054 330.904 393.401 330.287 394.543 329.721C395.072 319.767 394.853 307.925 394.852 307.799L394.735 301.606L399.564 305.496C400.002 305.848 410.411 314.309 418.669 327.339C429.849 344.972 431.554 362.429 423.6 377.825C417.68 389.278 405.091 394.6 393.013 394.6ZM400.687 314.38C400.687 319.196 400.594 325.845 400.228 331.703L400.129 333.285L398.741 334.052C397.181 334.915 395.232 335.809 392.976 336.837C383.341 341.248 368.778 347.911 366.929 360.863C364.302 379.279 377.333 385.506 383.057 387.329C395.079 391.155 412.036 387.601 418.451 375.176C431.707 349.517 410.65 324.279 400.689 314.373L400.687 314.38Z" fill="black"/>
<path d="M397.704 332.969C400.817 332.471 404.242 331.649 406.956 330.058C408.275 329.278 409.64 331.032 408.572 332.113C405.801 334.821 402.561 336.507 399.064 338.043C395.32 339.356 393.797 333.704 397.701 332.969H397.704Z" fill="black"/>
<path d="M344.063 314.928C349.317 313.576 354.756 313.276 360.018 314.877C362.608 315.861 368.261 317.847 365.931 321.556C365.686 321.9 365.369 322.186 365.002 322.395C364.635 322.604 364.227 322.731 363.806 322.767C363.385 322.803 362.961 322.747 362.564 322.603C362.167 322.459 361.806 322.231 361.506 321.934C359.502 319.974 356.799 318.77 353.987 318.157C350.904 317.526 347.741 317.391 344.615 317.756C342.855 317.955 342.36 315.401 344.063 314.928Z" fill="black"/>
<path d="M350.856 330.251C355.403 328.692 360.291 327.854 364.925 329.865C367.481 331.06 371.92 334.93 368.465 337.599C367.829 338.033 367.047 338.198 366.29 338.057C365.533 337.916 364.863 337.48 364.427 336.846C363.909 335.899 363.46 334.997 362.49 334.301C359.481 332.297 355.124 332.456 351.624 333.037C349.898 333.341 349.231 330.865 350.865 330.258L350.856 330.251Z" fill="black"/>
<path d="M392.327 379.402C389.509 383.908 385.214 387.512 379.978 388.867C378.181 389.385 376.29 389.461 374.411 389.433C373.64 389.421 372.906 389.104 372.369 388.551C371.832 387.999 371.537 387.256 371.548 386.487C371.548 384.662 373.32 383.298 375.093 383.694C380.668 384.924 386.436 381.936 389.992 377.718C391.14 376.385 393.235 377.904 392.327 379.403V379.402Z" fill="black"/>
<path d="M382.376 362.632C378.773 363.421 375.508 365.741 373.274 368.641L372.698 369.469C371.865 370.622 371.279 371.94 370.666 373.216C370.522 373.542 370.314 373.835 370.054 374.078C369.794 374.321 369.487 374.509 369.152 374.631C368.818 374.753 368.462 374.805 368.106 374.786C367.75 374.767 367.402 374.676 367.082 374.519C366.762 374.362 366.478 374.142 366.246 373.872C366.013 373.602 365.838 373.288 365.731 372.949C365.623 372.61 365.585 372.253 365.62 371.899C365.654 371.545 365.76 371.201 365.931 370.889C366.42 370.07 366.959 369.283 367.516 368.511C369.011 366.496 370.827 364.739 372.892 363.312C374.945 361.912 377.242 360.91 379.666 360.357C380.867 360.181 383.364 359.322 383.563 361.264C383.575 361.599 383.459 361.927 383.24 362.18C383.02 362.434 382.712 362.595 382.378 362.632H382.376Z" fill="black"/>
<path d="M406.148 425.07C405.808 433.268 397.746 436.027 397.746 436.027C397.746 436.027 385.968 439.386 363.772 439.386C341.576 439.386 329.796 436.027 329.796 436.027C329.796 436.027 321.736 433.268 321.395 425.07C321.062 417.002 329.796 414.105 329.796 414.105C329.796 414.105 344.605 416.527 363.772 416.527C382.939 416.527 397.743 414.111 397.743 414.111C397.743 414.111 406.477 417.002 406.148 425.07Z" fill="#52BF2E"/>
<path d="M406.148 425.07C405.808 433.268 397.746 436.027 397.746 436.027C397.746 436.027 385.968 439.386 363.772 439.386C341.576 439.386 329.796 436.027 329.796 436.027C329.796 436.027 321.736 433.268 321.395 425.07C321.062 417.002 329.796 414.105 329.796 414.105C329.796 414.105 344.605 416.527 363.772 416.527C382.939 416.527 397.743 414.111 397.743 414.111C397.743 414.111 406.477 417.002 406.148 425.07Z" fill="#0A5E5E"/>
<path d="M403.112 417.506C377.099 422.264 350.436 422.264 324.423 417.506C325.953 416.008 327.783 414.85 329.792 414.105C329.792 414.105 344.6 416.524 363.769 416.524C382.937 416.524 397.743 414.111 397.743 414.111C399.752 414.853 401.582 416.01 403.112 417.506Z" fill="#148484"/>
<path d="M406.148 425.07C405.808 433.268 397.747 436.027 397.747 436.027C397.747 436.027 385.966 439.386 363.772 439.386C341.578 439.386 329.796 436.027 329.796 436.027C329.796 436.027 321.736 433.268 321.395 425.07C321.296 423.173 321.765 421.29 322.742 419.66C325.108 424.054 329.796 425.662 329.796 425.662C329.796 425.662 341.578 429.021 363.772 429.021C385.966 429.021 397.747 425.662 397.747 425.662C397.747 425.662 402.436 424.059 404.802 419.66C405.779 421.29 406.247 423.173 406.148 425.07Z" fill="#055256"/>
<path d="M363.769 442.276C341.423 442.276 329.495 438.947 328.998 438.806L328.854 438.76C328.449 438.621 318.917 435.245 318.5 425.189C318.082 415.061 328.44 411.509 328.889 411.363C329.333 411.216 329.807 411.178 330.27 411.253C330.416 411.277 345.093 413.64 363.777 413.64C382.462 413.64 397.139 411.277 397.285 411.253C397.747 411.178 398.22 411.216 398.664 411.363C399.106 411.509 409.463 415.054 409.053 425.189C408.636 435.245 399.104 438.621 398.697 438.76L398.555 438.806C398.048 438.947 386.114 442.276 363.769 442.276ZM330.664 433.271C331.735 433.558 343.267 436.496 363.769 436.496C384.271 436.496 395.769 433.563 396.873 433.271C397.551 433.013 403.019 430.756 403.26 424.95C403.457 420.164 399.034 417.788 397.423 417.079C394.061 417.584 380.68 419.417 363.776 419.417C346.871 419.417 333.488 417.584 330.127 417.079C328.5 417.782 324.094 420.159 324.291 424.95C324.526 430.768 330.016 433.023 330.669 433.269L330.664 433.271Z" fill="#000500"/>
<path d="M406.148 289.441C405.808 297.641 397.746 300.401 397.746 300.401C397.746 300.401 385.968 303.758 363.772 303.758C341.576 303.758 329.796 300.401 329.796 300.401C329.796 300.401 321.736 297.641 321.395 289.441C321.062 281.374 329.796 278.477 329.796 278.477C329.796 278.477 344.605 280.901 363.772 280.901C382.939 280.901 397.746 278.477 397.746 278.477C397.746 278.477 406.477 281.374 406.148 289.441Z" fill="#0A5E5E"/>
<path d="M404.154 283.082C395.478 284.179 380.831 286.346 363.768 286.346C346.706 286.346 332.058 284.179 323.381 283.082C325.857 279.788 329.792 278.481 329.792 278.481C329.792 278.481 344.599 280.901 363.768 280.901C382.937 280.901 397.743 278.481 397.743 278.481C397.743 278.481 401.68 279.788 404.154 283.082Z" fill="#148484"/>
<path d="M406.148 289.445C405.808 297.645 397.747 300.402 397.747 300.402C397.747 300.402 385.966 303.761 363.772 303.761C341.578 303.761 329.796 300.402 329.796 300.402C329.796 300.402 321.736 297.645 321.395 289.445C321.379 289.024 321.389 288.601 321.425 288.181C322.945 289.642 324.74 290.786 326.707 291.547C326.707 291.547 339.562 295.21 363.779 295.21C387.997 295.21 400.851 291.547 400.851 291.547C402.818 290.786 404.614 289.642 406.134 288.181C406.163 288.602 406.168 289.024 406.148 289.445Z" fill="#055256"/>
<path d="M363.769 306.647C341.423 306.647 329.495 303.32 328.998 303.178C328.949 303.164 328.901 303.15 328.854 303.132C328.449 302.993 318.917 299.617 318.5 289.561C318.082 279.435 328.44 275.881 328.889 275.735C329.334 275.588 329.807 275.55 330.27 275.626C330.416 275.649 345.093 278.011 363.777 278.011C382.462 278.011 397.139 275.649 397.285 275.626C397.747 275.552 398.22 275.589 398.664 275.735C399.106 275.881 409.463 279.426 409.053 289.561C408.636 299.617 399.104 302.995 398.697 303.132C398.652 303.15 398.602 303.164 398.555 303.178C398.048 303.32 386.114 306.647 363.769 306.647ZM330.664 297.643C331.735 297.929 343.267 300.87 363.769 300.87C384.271 300.87 395.769 297.936 396.873 297.645C397.551 297.386 403.019 295.128 403.26 289.322C403.457 284.538 399.034 282.161 397.423 281.453C394.061 281.957 380.68 283.791 363.776 283.791C346.871 283.791 333.488 281.956 330.127 281.451C328.5 282.154 324.094 284.532 324.291 289.324C324.526 295.14 330.016 297.4 330.669 297.643H330.664Z" fill="#000500"/>
<path d="M406.148 153.815C405.808 162.013 397.746 164.772 397.746 164.772C397.746 164.772 383.755 166.518 363.772 166.518C343.79 166.518 329.796 164.772 329.796 164.772C329.796 164.772 321.736 162.013 321.395 153.815C321.062 145.745 329.796 142.849 329.796 142.849L363.772 143.105L397.746 142.849C397.746 142.849 406.477 145.745 406.148 153.815Z" fill="#0A5E5E"/>
<path d="M404.762 148.349L363.769 148.688L322.773 148.349C325.154 144.39 329.792 142.851 329.792 142.851L363.769 143.111L397.743 142.851C397.743 142.851 402.381 144.389 404.762 148.349Z" fill="#148484"/>
<path d="M406.148 153.815C405.808 162.013 397.747 164.772 397.747 164.772C397.747 164.772 383.758 166.52 363.772 166.52C343.786 166.52 329.796 164.772 329.796 164.772C329.796 164.772 321.736 162.013 321.395 153.815C321.368 153.209 321.398 152.602 321.483 152.001C322.749 153.012 324.163 153.823 325.675 154.407C325.675 154.407 341.365 156.364 363.776 156.364C386.186 156.364 401.876 154.407 401.876 154.407C403.387 153.823 404.799 153.011 406.065 152.001C406.148 152.602 406.176 153.209 406.148 153.815Z" fill="#055256"/>
<path d="M363.769 169.407C343.834 169.407 330.012 167.711 329.431 167.639C329.234 167.614 329.04 167.569 328.852 167.506C328.447 167.367 318.915 163.99 318.498 153.935C318.081 143.807 328.438 140.254 328.887 140.107C329.189 140.008 329.505 139.958 329.822 139.961L363.797 140.216L397.729 139.961C398.046 139.96 398.361 140.009 398.662 140.107C399.104 140.254 409.462 143.798 409.051 153.933C408.613 163.992 399.088 167.367 398.682 167.507C398.493 167.571 398.299 167.616 398.102 167.641C397.519 167.711 383.703 169.407 363.769 169.407ZM330.488 161.946C332.738 162.204 345.908 163.628 363.769 163.628C381.629 163.628 394.792 162.204 397.049 161.946C398.204 161.466 403.036 159.134 403.258 153.695C403.464 148.705 398.655 146.334 397.229 145.742L363.795 145.995L330.317 145.742C328.88 146.338 324.084 148.7 324.29 153.695C324.51 159.148 329.347 161.471 330.491 161.946H330.488Z" fill="#000500"/>
<path d="M406.148 18.1868C405.808 26.3846 397.746 29.1442 397.746 29.1442C397.746 29.1442 379.84 26.7256 363.772 26.7256C347.704 26.7256 329.796 29.1442 329.796 29.1442C329.796 29.1442 321.736 26.3846 321.395 18.1868C321.062 10.119 329.796 7.22234 329.796 7.22234C329.796 7.22234 343.543 2.88965 363.772 2.88965C384.001 2.88965 397.746 7.22234 397.746 7.22234C397.746 7.22234 406.477 10.119 406.148 18.1868Z" fill="#0A5E5E"/>
<path d="M406.137 17.3009C403.561 13.6748 399.256 12.2458 399.256 12.2458C399.256 12.2458 384.899 7.72326 363.769 7.72326C342.638 7.72326 328.282 12.2458 328.282 12.2458C328.282 12.2458 323.974 13.6748 321.398 17.3009C321.703 9.90455 329.792 7.22584 329.792 7.22584C329.792 7.22584 343.543 2.89139 363.769 2.89139C383.994 2.89139 397.743 7.22584 397.743 7.22584C397.743 7.22584 405.834 9.90455 406.137 17.3009Z" fill="#148484"/>
<path d="M405.016 22.741C402.726 27.4428 397.743 29.1477 397.743 29.1477C397.743 29.1477 379.84 26.7274 363.769 26.7274C347.697 26.7274 329.792 29.1477 329.792 29.1477C329.792 29.1477 324.814 27.4428 322.52 22.741C324.872 22.3297 345.307 18.8617 363.769 18.8617C382.23 18.8617 402.665 22.3226 405.016 22.741Z" fill="#148484"/>
<path d="M397.743 32.0338C397.613 32.0338 397.484 32.025 397.356 32.0074C397.18 31.9846 379.449 29.6152 363.769 29.6152C348.088 29.6152 330.358 31.9899 330.181 32.0074C329.735 32.0684 329.28 32.0239 328.854 31.8774C328.449 31.7385 318.917 28.362 318.5 18.3063C318.082 8.18027 328.44 4.62623 328.889 4.48034C329.509 4.28524 343.328 0 363.777 0C384.226 0 398.046 4.28524 398.623 4.46628C399.106 4.62623 409.463 8.18027 409.046 18.3063C408.629 28.362 399.097 31.7385 398.69 31.8774C398.386 31.982 398.065 32.0349 397.743 32.0338ZM363.769 5.77927C344.212 5.77927 330.798 9.93619 330.664 9.97838C330.446 10.0522 324.047 12.3143 324.284 18.0637C324.494 23.1083 328.651 25.4741 330.178 26.1754C333.826 25.7079 349.384 23.8324 363.769 23.8324C378.153 23.8324 393.704 25.7079 397.357 26.1754C398.889 25.4724 403.043 23.1065 403.253 18.062C403.492 12.237 396.898 9.97662 396.831 9.95904C396.764 9.94147 383.256 5.77927 363.769 5.77927Z" fill="#000500"/>
<path d="M423.695 393.502C423.315 393.501 422.951 393.352 422.681 393.085C422.059 392.475 407.747 377.551 429.999 325.602C430.132 325.294 430.368 325.041 430.668 324.887C430.967 324.734 431.311 324.689 431.64 324.761C431.969 324.834 432.262 325.018 432.469 325.283C432.677 325.548 432.785 325.876 432.776 326.212C432.763 326.641 431.543 369.235 430.937 379.581C430.279 390.804 424.491 393.291 424.246 393.394C424.071 393.466 423.884 393.502 423.695 393.502Z" fill="#0A5E5E"/>
<path d="M431.328 326.172C431.328 326.172 430.096 369.059 429.49 379.497C428.884 389.934 423.695 392.057 423.695 392.057C423.695 392.057 409.208 377.809 431.328 326.172ZM431.328 323.282C430.761 323.283 430.207 323.45 429.734 323.763C429.261 324.075 428.89 324.519 428.668 325.04C419.307 346.897 415.156 364.96 416.341 378.73C417.262 389.498 421.223 393.679 421.672 394.12C422.213 394.653 422.943 394.952 423.704 394.952C424.079 394.952 424.452 394.879 424.799 394.736C425.503 394.449 431.691 391.586 432.39 379.671C432.998 369.3 434.179 328.012 434.23 326.258C434.241 325.872 434.175 325.487 434.034 325.127C433.894 324.767 433.682 324.439 433.412 324.162C433.142 323.885 432.819 323.665 432.463 323.514C432.106 323.364 431.723 323.287 431.335 323.288L431.328 323.282Z" fill="black"/>
<path d="M430.024 332.123C427.99 341.487 426.523 350.969 425.884 360.528C425.273 370.091 425.454 379.709 424.299 389.241C424.85 379.651 424.582 370.072 425.167 360.478C425.871 350.899 427.437 341.378 430.02 332.123H430.024Z" fill="#148484"/>
<path d="M436.748 375.756C436.487 375.756 436.231 375.685 436.006 375.552C435.782 375.418 435.598 375.226 435.473 374.997C435.061 374.232 425.789 355.762 462.362 312.652C462.58 312.392 462.882 312.217 463.215 312.157C463.549 312.097 463.893 312.156 464.188 312.323C464.483 312.49 464.709 312.756 464.828 313.073C464.947 313.39 464.95 313.739 464.838 314.058C464.699 314.464 450.976 354.815 447.347 364.523C443.41 375.055 437.134 375.735 436.879 375.76L436.748 375.756Z" fill="#148484"/>
<path d="M463.466 313.585C463.466 313.585 449.654 354.209 445.991 364.01C442.329 373.81 436.748 374.311 436.748 374.311C436.748 374.311 427.104 356.439 463.466 313.585ZM463.466 310.695C463.046 310.695 462.63 310.787 462.249 310.963C461.867 311.139 461.528 311.397 461.256 311.717C445.866 329.856 436.574 345.9 433.64 359.406C431.351 369.97 433.899 375.129 434.199 375.682C434.446 376.141 434.814 376.525 435.262 376.792C435.71 377.06 436.223 377.201 436.745 377.201C436.832 377.201 436.919 377.197 437.005 377.189C437.763 377.122 444.521 376.203 448.701 365.02C452.337 355.29 465.641 316.174 466.206 314.513C466.354 314.078 466.396 313.615 466.329 313.161C466.262 312.706 466.087 312.275 465.819 311.902C465.551 311.528 465.198 311.224 464.789 311.014C464.38 310.805 463.926 310.695 463.466 310.695Z" fill="black"/>
<path d="M459.679 319.841C455.629 328.443 450.985 336.778 447.051 345.426C443.075 354.075 440.735 363.333 438.557 372.569C440.224 363.203 442.471 353.845 446.405 345.139C450.371 336.461 455.083 328.188 459.679 319.841Z" fill="#42B7B4"/>
<path d="M455.452 370.648C452.237 370.648 450.432 369.404 450.237 369.262C449.986 369.079 449.801 368.821 449.708 368.525C449.616 368.23 449.621 367.912 449.723 367.62C450.089 366.565 459.194 341.819 502.26 341.819C504.232 341.819 506.275 341.871 508.33 341.979C508.672 341.997 508.996 342.136 509.245 342.37C509.494 342.605 509.652 342.92 509.69 343.259C509.729 343.599 509.645 343.941 509.455 344.225C509.265 344.509 508.98 344.716 508.651 344.81C508.474 344.86 491.091 349.908 465.572 367.07C462.035 369.444 458.631 370.648 455.452 370.648Z" fill="#148484"/>
<path d="M502.255 343.264C504.192 343.264 506.178 343.315 508.242 343.42C508.242 343.42 490.809 348.361 464.748 365.873C460.874 368.481 457.726 369.212 455.437 369.212C452.6 369.212 451.073 368.101 451.073 368.101C451.073 368.101 459.714 343.274 502.244 343.272M502.244 340.383C479.409 340.383 466.048 347.498 458.86 353.467C450.855 360.111 448.439 366.869 448.339 367.154C448.135 367.739 448.125 368.374 448.311 368.965C448.496 369.557 448.867 370.073 449.369 370.437C449.751 370.715 451.834 372.102 455.437 372.102C458.914 372.102 462.591 370.815 466.365 368.277C491.649 351.282 508.86 346.257 509.031 346.208C509.689 346.019 510.259 345.604 510.64 345.036C511.02 344.468 511.187 343.784 511.11 343.105C511.033 342.426 510.717 341.796 510.219 341.327C509.72 340.858 509.072 340.581 508.388 340.544C506.309 340.437 504.243 340.383 502.251 340.383H502.244Z" fill="black"/>
<path d="M502.575 344.234C493.826 346.768 484.79 348.66 476.498 352.495C468.222 356.362 460.698 361.635 453.369 367.056C460.386 361.181 467.907 355.806 476.196 351.848C484.572 348.023 493.639 346.202 502.575 344.234Z" fill="#42B7B4"/>
<path d="M501.609 408.569C501.316 408.568 501.031 408.48 500.79 408.316C500.564 408.161 477.983 392.816 456.592 387.795C452.57 386.852 449.763 385.089 448.247 382.557C447.157 380.728 446.801 378.555 447.252 376.475C447.336 376.159 447.526 375.881 447.791 375.688C447.981 375.547 452.526 372.272 460.036 372.272C470.084 372.272 485.664 378.189 502.843 406.371C502.976 406.59 503.049 406.84 503.053 407.096C503.058 407.352 502.994 407.605 502.869 407.828C502.743 408.052 502.561 408.238 502.34 408.368C502.119 408.497 501.867 408.566 501.61 408.567L501.609 408.569Z" fill="#0A5E5E"/>
<path d="M460.031 373.717C469.751 373.717 484.794 379.547 501.602 407.124C501.602 407.124 478.832 391.533 456.918 386.383C446.715 383.989 448.641 376.846 448.641 376.846C448.641 376.846 452.906 373.714 460.029 373.712M460.029 370.822C452.047 370.822 447.132 374.368 446.926 374.513C446.396 374.903 446.016 375.461 445.847 376.095C445.286 378.556 445.699 381.138 446.998 383.302C448.722 386.184 451.836 388.171 456.254 389.206C477.368 394.163 499.747 409.36 499.962 409.512C500.508 409.886 501.166 410.061 501.826 410.009C502.486 409.957 503.108 409.681 503.589 409.227C504.069 408.772 504.379 408.167 504.467 407.513C504.555 406.858 504.416 406.193 504.072 405.628C486.544 376.87 470.448 370.826 460.031 370.826L460.029 370.822Z" fill="black"/>
<path d="M497.574 403.417C482.431 388.441 470.895 382.564 450.147 378.017C470.323 381.249 483.912 388.141 497.574 403.417Z" fill="#148484"/>
<defs>
<filter id="filter0_f_19_305" x="0.162231" y="372.965" width="450.347" height="248.239" filterUnits="userSpaceOnUse" color-interpolation-filters="sRGB">
<feFlood flood-opacity="0" result="BackgroundImageFix"/>
<feBlend mode="normal" in="SourceGraphic" in2="BackgroundImageFix" result="shape"/>
<feGaussianBlur stdDeviation="40" result="effect1_foregroundBlur_19_305"/>
</filter>
</defs>
</svg>
